<svg id="svg" version="1.1" xmlns="http://www.w3.org/2000/svg" xmlns:xlink="http://www.w3.org/1999/xlink" width="400" height="259.70149253731347" viewBox="0, 0, 400,259.70149253731347"><g id="svgg"><path id="path0" d="M135.478 0.222 C 135.403 0.344,134.288 0.523,133.002 0.620 C 118.643 1.704,106.325 14.018,105.042 28.571 C 104.948 29.643,104.647 31.221,104.374 32.078 C 103.979 33.320,95.728 50.412,94.782 51.948 C 94.650 52.162,94.476 52.513,94.395 52.727 C 94.314 52.942,94.139 53.292,94.006 53.506 C 93.872 53.721,93.697 54.071,93.616 54.286 C 93.535 54.500,93.360 54.878,93.228 55.126 C 93.095 55.374,92.987 55.709,92.987 55.871 C 92.987 56.128,84.234 74.047,83.612 75.065 C 83.481 75.279,83.307 75.630,83.226 75.844 C 83.146 76.058,82.970 76.409,82.837 76.623 C 82.703 76.838,82.528 77.188,82.447 77.403 C 82.366 77.617,82.191 77.995,82.059 78.243 C 81.927 78.491,81.818 78.827,81.818 78.989 C 81.818 79.151,79.773 83.376,77.273 88.378 C 74.773 93.380,72.727 97.617,72.727 97.795 C 72.727 97.973,72.552 98.264,72.338 98.442 C 72.123 98.619,71.948 98.970,71.948 99.221 C 71.948 99.472,71.773 99.822,71.558 100.000 C 71.344 100.178,71.169 100.528,71.169 100.779 C 71.169 101.030,70.994 101.381,70.779 101.558 C 70.565 101.736,70.390 102.107,70.390 102.383 C 70.390 102.659,68.782 106.147,66.818 110.135 C 62.862 118.167,62.544 118.547,61.939 115.974 C 57.970 99.099,38.566 88.902,21.396 94.668 C 10.174 98.437,1.496 109.459,0.620 121.054 C 0.523 122.340,0.344 123.454,0.222 123.530 C -0.066 123.708,-0.066 124.864,0.222 125.042 C 0.344 125.117,0.523 126.231,0.620 127.517 C 2.090 146.983,22.694 160.265,41.688 153.989 C 51.797 150.650,59.173 142.571,62.239 131.479 C 62.425 130.805,63.175 131.611,63.667 133.014 C 63.938 133.785,64.495 135.117,64.906 135.974 C 65.856 137.956,67.224 141.124,67.711 142.468 C 67.918 143.039,68.547 144.455,69.109 145.614 C 69.670 146.773,70.130 147.856,70.130 148.020 C 70.130 148.184,70.239 148.522,70.373 148.770 C 70.940 149.822,72.468 153.287,72.468 153.520 C 72.468 153.659,72.569 153.976,72.692 154.224 C 73.556 155.956,74.579 158.270,75.018 159.481 C 75.302 160.266,75.825 161.494,76.180 162.208 C 76.535 162.922,76.972 163.916,77.152 164.416 C 77.331 164.916,77.800 166.026,78.195 166.883 C 78.589 167.740,79.183 169.143,79.514 170.000 C 79.846 170.857,80.331 171.954,80.593 172.436 C 80.854 172.919,81.247 173.854,81.466 174.514 C 81.685 175.174,82.247 176.532,82.716 177.532 C 83.846 179.942,85.167 182.999,85.633 184.286 C 85.840 184.857,86.469 186.273,87.031 187.432 C 87.592 188.591,88.052 189.674,88.052 189.838 C 88.052 190.002,88.163 190.340,88.298 190.588 C 88.531 191.014,90.190 194.850,90.628 195.974 C 90.740 196.260,91.189 197.253,91.627 198.182 C 92.064 199.110,92.657 200.521,92.943 201.316 C 93.229 202.111,93.765 203.302,94.134 203.963 C 94.503 204.624,94.805 205.349,94.805 205.573 C 94.805 205.797,94.915 206.184,95.050 206.432 C 95.523 207.304,96.840 210.277,97.437 211.818 C 97.768 212.675,98.254 213.772,98.515 214.255 C 98.776 214.738,99.170 215.673,99.390 216.333 C 99.609 216.993,100.119 218.234,100.522 219.091 C 102.027 222.290,103.795 226.523,104.536 228.701 C 104.730 229.273,104.969 230.734,105.066 231.948 C 106.055 244.352,117.028 257.185,128.270 259.084 C 128.865 259.184,129.351 259.373,129.351 259.503 C 129.351 259.640,132.260 259.740,136.234 259.740 C 140.235 259.740,143.117 259.641,143.117 259.502 C 143.117 259.371,143.715 259.136,144.445 258.979 C 152.375 257.278,162.895 248.151,165.002 241.144 C 165.084 240.872,165.397 240.006,165.697 239.221 C 166.468 237.207,167.273 233.763,167.273 232.480 C 167.273 230.155,163.638 230.390,199.588 230.390 C 224.700 230.390,231.419 230.458,231.621 230.714 C 231.762 230.893,231.952 231.882,232.044 232.913 C 233.089 244.703,243.685 256.647,255.260 259.084 C 255.724 259.182,256.104 259.370,256.104 259.501 C 256.104 259.641,258.967 259.740,262.987 259.740 C 266.828 259.740,269.870 259.638,269.870 259.509 C 269.870 259.382,270.308 259.201,270.844 259.106 C 282.095 257.115,292.997 244.650,294.142 232.468 C 294.419 229.510,294.771 228.100,295.739 226.059 C 296.226 225.035,296.623 224.074,296.623 223.925 C 296.623 223.776,297.149 222.582,297.792 221.271 C 298.435 219.959,298.961 218.769,298.961 218.624 C 298.961 218.480,299.297 217.649,299.709 216.778 C 300.120 215.907,300.637 214.661,300.858 214.009 C 301.079 213.356,301.736 211.848,302.318 210.657 C 302.900 209.466,303.377 208.375,303.377 208.232 C 303.377 207.996,303.819 206.996,305.227 204.042 C 305.495 203.480,305.714 202.906,305.714 202.768 C 305.714 202.545,306.356 201.080,307.429 198.856 C 307.629 198.441,307.792 197.997,307.792 197.870 C 307.792 197.742,308.318 196.519,308.961 195.153 C 309.604 193.786,310.130 192.544,310.130 192.392 C 310.130 192.240,310.597 191.150,311.169 189.969 C 311.740 188.789,312.208 187.699,312.208 187.547 C 312.208 187.395,312.734 186.167,313.377 184.819 C 314.019 183.471,314.545 182.250,314.545 182.107 C 314.545 181.964,315.071 180.759,315.713 179.430 C 316.355 178.101,316.881 176.883,316.882 176.724 C 316.882 176.565,317.351 175.438,317.922 174.218 C 318.494 172.999,318.961 171.877,318.961 171.724 C 318.961 171.571,319.487 170.374,320.130 169.063 C 320.773 167.752,321.299 166.561,321.299 166.417 C 321.299 166.179,321.738 165.182,323.149 162.224 C 323.417 161.661,323.636 161.088,323.636 160.950 C 323.636 160.727,324.279 159.262,325.351 157.038 C 325.551 156.623,325.714 156.179,325.714 156.051 C 325.714 155.924,326.240 154.701,326.883 153.335 C 327.526 151.968,328.052 150.726,328.052 150.574 C 328.052 150.422,328.519 149.332,329.091 148.151 C 329.662 146.971,330.130 145.880,330.130 145.729 C 330.130 145.577,330.656 144.349,331.299 143.001 C 331.942 141.652,332.468 140.432,332.468 140.289 C 332.468 140.146,332.993 138.941,333.635 137.612 C 334.277 136.282,334.803 135.065,334.804 134.906 C 334.807 134.323,336.758 130.390,337.044 130.390 C 337.369 130.390,337.571 130.877,338.445 133.766 C 343.403 150.176,361.761 159.487,378.312 153.986 C 389.717 150.196,398.501 139.160,399.380 127.517 C 399.477 126.231,399.656 125.117,399.778 125.042 C 400.066 124.864,400.066 123.708,399.778 123.530 C 399.656 123.454,399.477 122.340,399.380 121.054 C 397.896 101.403,377.165 88.180,358.019 94.673 C 348.128 98.027,340.466 106.445,337.823 116.862 C 337.518 118.065,337.153 119.080,337.011 119.119 C 336.767 119.184,295.302 36.455,294.631 34.564 C 294.457 34.074,294.322 32.905,294.330 31.967 C 294.469 15.989,282.051 1.889,266.753 0.654 C 265.682 0.568,264.366 0.366,263.828 0.206 C 263.119 -0.005,262.693 -0.007,262.270 0.199 C 261.950 0.356,260.705 0.560,259.503 0.653 C 248.994 1.468,238.511 9.211,234.365 19.221 C 232.785 23.037,232.290 24.823,232.044 27.606 C 231.952 28.637,231.762 29.627,231.621 29.805 C 231.419 30.062,224.700 30.130,199.588 30.130 C 163.600 30.130,167.273 30.372,167.273 27.998 C 167.273 26.932,166.353 22.861,165.731 21.169 C 165.075 19.387,164.157 17.501,163.018 15.594 C 157.990 7.175,148.787 1.324,139.465 0.620 C 138.179 0.523,137.065 0.344,136.990 0.222 C 136.914 0.100,136.574 0.000,136.234 0.000 C 135.893 0.000,135.553 0.100,135.478 0.222 M142.597 4.127 C 152.176 6.477,159.653 13.152,162.850 22.208 C 164.180 25.973,164.286 26.690,164.274 31.818 C 164.260 37.653,163.845 39.528,161.498 44.364 C 153.891 60.034,133.171 64.936,119.215 54.367 C 104.236 43.024,104.119 20.706,118.979 9.213 C 121.947 6.917,124.686 5.602,129.481 4.171 C 132.422 3.293,139.109 3.271,142.597 4.127 M266.623 3.647 C 267.909 3.793,269.312 4.023,269.740 4.157 C 274.705 5.712,276.898 6.739,279.719 8.831 C 287.997 14.969,292.174 24.317,291.201 34.529 C 291.044 36.181,290.799 37.883,290.658 38.312 C 290.516 38.740,290.156 39.847,289.856 40.771 C 284.497 57.314,265.123 64.890,249.428 56.580 C 235.667 49.293,230.595 30.856,238.650 17.403 C 244.614 7.442,255.018 2.326,266.623 3.647 M231.500 33.615 C 231.708 33.823,231.936 34.761,232.021 35.758 C 232.967 46.794,241.942 57.730,253.101 61.445 C 269.390 66.868,287.335 57.979,292.725 41.818 C 293.034 40.890,293.381 40.033,293.496 39.915 C 293.731 39.670,334.816 121.701,334.810 122.403 C 334.803 123.052,267.032 123.117,266.494 122.468 C 266.234 122.155,266.256 121.654,266.602 119.935 C 268.190 112.059,268.745 97.368,267.541 95.072 C 267.426 94.854,267.250 94.062,267.148 93.312 C 267.047 92.562,266.858 91.883,266.729 91.803 C 266.599 91.723,266.494 91.336,266.494 90.943 C 266.494 90.551,266.322 90.002,266.112 89.725 C 265.902 89.448,265.727 88.925,265.723 88.564 C 265.718 88.203,265.556 87.677,265.362 87.395 C 265.168 87.114,264.799 86.240,264.541 85.455 C 264.282 84.669,263.739 83.487,263.334 82.828 C 262.929 82.170,262.597 81.563,262.597 81.480 C 262.597 80.398,256.572 73.467,253.506 71.022 C 252.025 69.841,247.141 67.273,246.376 67.273 C 246.136 67.273,245.693 67.141,245.391 66.979 C 244.456 66.479,241.793 65.939,239.362 65.758 C 237.156 65.593,237.027 65.551,236.882 64.935 C 236.749 64.365,236.546 64.263,235.229 64.098 C 234.404 63.995,233.299 63.791,232.773 63.645 C 231.569 63.310,223.586 63.319,221.169 63.658 C 220.169 63.798,218.474 64.019,217.403 64.148 C 214.953 64.444,209.961 65.539,209.081 65.973 C 208.861 66.081,208.160 66.256,207.522 66.361 C 206.885 66.466,206.247 66.642,206.104 66.753 C 205.961 66.863,205.456 67.036,204.983 67.137 C 204.509 67.239,203.807 67.485,203.424 67.685 C 203.041 67.885,202.529 68.049,202.286 68.050 C 202.044 68.051,201.296 68.344,200.624 68.701 C 199.953 69.058,199.216 69.352,198.987 69.353 C 198.474 69.355,192.283 72.469,189.524 74.113 C 188.405 74.779,187.391 75.325,187.270 75.325 C 187.149 75.325,185.900 76.181,184.493 77.227 C 183.087 78.274,180.128 80.315,177.916 81.764 C 174.640 83.910,173.487 84.838,171.688 86.778 C 170.474 88.087,168.553 90.141,167.420 91.342 C 166.286 92.543,164.984 94.077,164.526 94.750 C 164.068 95.423,163.330 96.317,162.886 96.737 C 162.441 97.156,162.078 97.634,162.078 97.798 C 162.078 97.962,161.496 98.846,160.786 99.763 C 158.604 102.575,158.451 102.790,158.270 103.286 C 158.173 103.550,157.763 104.150,157.359 104.619 C 156.954 105.089,156.623 105.626,156.623 105.813 C 156.623 106.000,156.375 106.376,156.071 106.648 C 155.768 106.920,154.777 108.274,153.869 109.657 C 152.962 111.039,152.092 112.248,151.938 112.344 C 151.783 112.440,151.544 112.770,151.406 113.077 C 151.059 113.851,149.653 115.863,147.656 118.442 C 147.158 119.084,146.586 119.961,146.384 120.390 C 146.182 120.818,145.649 121.519,145.199 121.948 L 144.382 122.727 132.965 122.800 C 119.387 122.887,120.053 123.090,123.431 119.893 C 126.983 116.533,127.556 114.285,125.300 112.562 C 122.014 110.052,114.634 115.336,113.624 120.921 C 113.236 123.066,115.921 122.857,88.720 122.857 C 67.516 122.857,64.453 122.809,64.323 122.472 C 64.241 122.257,66.069 118.303,68.451 113.542 C 70.803 108.842,72.727 104.822,72.727 104.608 C 72.727 104.394,72.903 104.074,73.117 103.896 C 73.331 103.718,73.506 103.368,73.506 103.117 C 73.506 102.866,73.682 102.516,73.896 102.338 C 74.110 102.160,74.286 101.809,74.286 101.558 C 74.286 101.308,74.461 100.957,74.675 100.779 C 74.890 100.601,75.065 100.259,75.065 100.018 C 75.065 99.776,77.050 95.612,79.475 90.764 C 81.901 85.915,83.888 81.758,83.891 81.525 C 83.894 81.293,84.071 80.957,84.286 80.779 C 84.500 80.601,84.675 80.251,84.675 80.000 C 84.675 79.749,84.851 79.399,85.065 79.221 C 85.279 79.043,85.455 78.692,85.455 78.442 C 85.455 78.191,85.630 77.840,85.844 77.662 C 86.058 77.484,86.234 77.144,86.234 76.906 C 86.234 76.667,88.219 72.503,90.645 67.652 C 93.071 62.800,95.058 58.641,95.061 58.408 C 95.063 58.176,95.240 57.840,95.455 57.662 C 95.669 57.484,95.844 57.134,95.844 56.883 C 95.844 56.632,96.019 56.282,96.234 56.104 C 96.448 55.926,96.623 55.575,96.623 55.325 C 96.623 55.074,96.799 54.723,97.013 54.545 C 97.227 54.368,97.402 54.032,97.402 53.799 C 97.402 53.567,99.067 50.020,101.103 45.917 C 104.978 38.109,105.476 37.424,105.829 39.416 C 107.140 46.796,113.974 55.477,121.597 59.443 C 129.712 63.664,140.400 64.212,147.922 60.791 C 148.208 60.661,148.909 60.349,149.481 60.098 C 156.921 56.830,163.754 49.037,166.078 41.169 C 166.331 40.312,166.649 39.260,166.784 38.831 C 166.918 38.403,167.102 37.136,167.191 36.017 C 167.288 34.804,167.502 33.834,167.721 33.615 C 168.275 33.061,230.947 33.062,231.500 33.615 M236.494 65.974 C 236.587 66.126,236.318 66.234,235.844 66.234 C 235.370 66.234,235.101 66.126,235.195 65.974 C 235.283 65.831,235.575 65.714,235.844 65.714 C 236.113 65.714,236.405 65.831,236.494 65.974 M231.221 68.557 C 231.574 68.835,232.496 69.142,233.269 69.240 C 234.043 69.338,235.669 69.645,236.883 69.921 C 238.097 70.197,239.617 70.543,240.260 70.689 C 244.628 71.681,244.228 72.460,239.351 72.460 C 235.639 72.460,227.725 73.124,227.003 73.497 C 226.783 73.610,225.847 73.788,224.925 73.893 C 224.002 73.998,223.130 74.174,222.987 74.285 C 222.844 74.396,222.206 74.573,221.568 74.678 C 220.931 74.783,220.230 74.958,220.010 75.066 C 219.580 75.278,217.627 75.786,216.018 76.105 C 215.471 76.213,214.892 76.432,214.732 76.592 C 214.572 76.752,214.190 76.883,213.883 76.883 C 213.576 76.883,212.775 77.175,212.103 77.532 C 211.431 77.890,210.696 78.182,210.469 78.182 C 210.107 78.182,208.620 78.791,207.187 79.527 C 199.400 83.523,196.481 85.620,191.429 90.845 C 187.493 94.915,186.131 96.499,185.875 97.304 C 185.780 97.606,185.470 98.062,185.188 98.318 C 184.906 98.573,184.675 98.959,184.675 99.176 C 184.675 99.392,184.514 99.754,184.316 99.980 C 183.847 100.514,182.857 104.799,182.857 106.292 C 182.857 106.932,182.744 107.794,182.606 108.208 C 182.468 108.622,182.180 110.071,181.967 111.429 C 181.753 112.786,181.401 114.890,181.184 116.104 C 180.337 120.847,180.994 123.373,183.160 123.703 C 184.227 123.865,184.287 123.830,185.072 122.587 C 185.785 121.457,186.672 120.854,187.056 121.237 C 187.211 121.393,187.060 121.772,186.645 122.264 C 185.313 123.848,185.232 125.662,186.460 126.430 C 186.836 126.665,187.631 127.339,188.227 127.928 C 191.647 131.306,198.057 130.312,201.429 125.882 C 204.794 121.461,206.876 119.713,211.556 117.383 C 219.092 113.631,222.074 108.503,222.077 99.286 C 222.078 96.970,222.153 96.364,222.438 96.364 C 222.939 96.364,223.647 97.524,223.828 98.645 C 223.912 99.162,224.136 99.883,224.327 100.247 C 224.517 100.611,224.673 101.329,224.674 101.843 C 224.676 102.948,225.522 103.933,226.032 103.422 C 226.200 103.254,226.560 103.117,226.831 103.117 C 227.102 103.117,227.692 102.950,228.143 102.747 C 228.593 102.543,229.487 102.258,230.130 102.114 C 230.773 101.969,231.768 101.732,232.343 101.587 C 237.952 100.169,246.199 102.361,250.649 106.452 C 252.766 108.397,252.587 108.922,250.195 107.783 C 249.306 107.359,248.429 107.013,248.246 107.013 C 248.064 107.013,247.467 106.773,246.921 106.481 C 245.022 105.463,237.168 104.843,234.125 105.471 C 233.285 105.645,232.071 105.841,231.429 105.908 C 230.786 105.975,230.143 106.119,230.000 106.228 C 229.857 106.337,229.273 106.508,228.701 106.610 C 228.130 106.711,227.097 106.976,226.406 107.200 C 225.094 107.625,225.000 107.750,224.397 109.870 C 224.214 110.513,223.852 111.280,223.591 111.575 C 223.330 111.870,223.117 112.250,223.117 112.419 C 223.117 113.548,218.649 117.355,215.100 119.249 L 212.857 120.446 212.769 122.496 C 212.681 124.545,213.355 130.404,213.770 131.202 C 213.891 131.434,214.070 132.049,214.168 132.568 C 214.265 133.087,214.448 133.576,214.575 133.655 C 214.702 133.733,214.806 134.053,214.807 134.366 C 214.808 134.679,214.983 135.270,215.196 135.679 C 215.410 136.088,215.584 136.546,215.584 136.696 C 215.584 137.131,217.129 141.029,217.950 142.666 C 218.363 143.490,218.701 144.340,218.701 144.555 C 218.701 144.770,219.169 145.876,219.740 147.013 C 220.312 148.150,220.779 149.229,220.779 149.412 C 220.779 149.595,221.304 150.795,221.945 152.080 C 222.587 153.364,223.113 154.563,223.114 154.744 C 223.116 154.924,223.223 155.275,223.354 155.523 C 224.062 156.874,225.974 160.968,225.974 161.135 C 225.974 161.310,226.482 162.429,228.289 166.234 C 229.029 167.791,229.934 169.384,230.648 170.388 C 231.593 171.716,231.865 171.696,213.232 171.625 L 195.714 171.558 195.436 170.519 C 195.283 169.948,195.089 169.305,195.004 169.091 C 194.919 168.877,194.788 168.340,194.712 167.898 C 194.256 165.238,192.426 163.864,188.726 163.406 C 187.277 163.227,187.353 163.356,186.572 159.740 C 186.006 157.116,185.828 149.152,186.300 147.542 C 186.619 146.455,186.840 146.251,189.879 144.230 C 193.170 142.041,196.870 139.408,197.646 138.701 C 197.881 138.487,198.761 137.688,199.601 136.926 C 201.139 135.531,204.548 131.896,206.234 129.855 C 207.960 127.763,209.608 123.870,209.051 123.199 C 208.489 122.522,207.571 123.278,205.838 125.844 C 204.590 127.691,200.874 131.274,199.405 132.044 C 194.933 134.391,188.083 133.262,184.830 129.642 C 183.917 128.626,183.458 128.839,181.818 131.034 C 181.318 131.704,180.529 132.694,180.065 133.235 C 179.601 133.776,179.221 134.342,179.221 134.492 C 179.221 134.642,178.908 135.138,178.525 135.592 C 178.142 136.047,177.645 136.748,177.421 137.149 C 176.538 138.728,174.693 140.867,173.242 141.994 C 171.141 143.626,170.695 146.528,172.087 149.520 C 172.296 149.970,172.468 150.577,172.468 150.868 C 172.468 151.159,172.569 151.461,172.693 151.537 C 172.817 151.614,172.998 152.169,173.094 152.771 C 173.307 154.104,174.019 156.402,174.323 156.740 C 174.445 156.876,174.546 157.227,174.547 157.519 C 174.548 157.812,174.723 158.387,174.937 158.796 C 175.150 159.205,175.325 159.763,175.325 160.035 C 175.325 160.307,175.675 161.186,176.104 161.990 C 176.532 162.793,176.883 163.633,176.883 163.858 C 176.883 164.082,177.335 165.205,177.888 166.354 C 179.804 170.337,180.047 170.933,179.902 171.310 C 179.687 171.869,157.111 171.879,156.551 171.320 C 156.341 171.110,156.117 170.169,156.030 169.135 C 155.765 165.967,154.689 164.537,151.901 163.641 C 149.368 162.827,149.354 162.673,151.165 155.844 C 151.487 154.630,151.904 152.950,152.091 152.111 C 152.292 151.213,152.694 150.304,153.070 149.903 C 153.421 149.528,153.778 148.987,153.865 148.701 C 154.256 147.405,158.414 143.923,161.039 142.695 C 161.665 142.402,168.633 137.736,169.414 137.086 C 169.806 136.760,170.672 136.084,171.338 135.584 C 172.783 134.500,177.346 130.399,178.888 128.799 C 179.491 128.174,180.224 127.455,180.518 127.202 C 181.144 126.660,181.017 126.315,179.663 124.879 C 177.957 123.070,177.564 121.857,177.758 118.997 C 178.033 114.956,178.694 111.413,179.560 109.351 C 179.710 108.994,179.855 107.357,179.883 105.714 C 179.984 99.825,181.781 95.715,186.494 90.592 L 187.922 89.039 188.006 85.624 C 188.052 83.745,188.198 82.097,188.331 81.961 C 188.463 81.825,188.571 81.456,188.571 81.140 C 188.571 80.314,190.510 77.966,191.366 77.755 C 191.758 77.659,192.342 77.409,192.665 77.200 C 193.458 76.686,197.686 76.861,198.365 77.436 C 199.505 78.399,200.945 78.572,202.006 77.873 C 203.321 77.007,208.377 74.545,208.843 74.545 C 209.047 74.545,209.799 74.270,210.516 73.934 C 212.207 73.140,213.364 72.735,214.805 72.432 C 215.448 72.297,216.154 72.089,216.374 71.969 C 216.594 71.850,217.383 71.668,218.127 71.566 C 218.871 71.464,219.545 71.274,219.625 71.144 C 219.705 71.015,220.108 70.909,220.519 70.909 C 220.931 70.909,221.334 70.803,221.414 70.674 C 221.494 70.544,222.173 70.356,222.922 70.255 C 223.672 70.154,224.403 69.981,224.545 69.870 C 224.688 69.760,225.273 69.592,225.844 69.497 C 226.416 69.402,227.643 69.049,228.571 68.713 C 230.683 67.949,230.465 67.962,231.221 68.557 M192.547 80.280 C 191.226 80.934,190.620 82.416,190.559 85.145 C 190.511 87.263,190.887 87.345,192.727 85.613 C 193.370 85.008,194.364 84.208,194.935 83.835 C 196.160 83.037,197.922 81.422,197.922 81.098 C 197.922 80.012,194.225 79.449,192.547 80.280 M219.091 81.587 C 222.863 84.295,222.775 90.793,218.916 94.442 C 216.033 97.169,215.149 97.038,216.610 94.103 C 218.031 91.248,218.944 86.835,218.209 86.380 C 218.051 86.283,217.922 85.932,217.922 85.601 C 217.922 82.944,211.372 84.185,209.221 87.249 C 207.271 90.027,204.935 92.111,204.935 91.074 C 204.935 86.464,209.116 81.543,213.766 80.680 C 215.682 80.325,217.848 80.694,219.091 81.587 M176.108 86.619 C 175.799 86.948,175.350 87.566,175.111 87.993 C 174.609 88.887,173.416 90.580,172.447 91.773 C 172.079 92.226,171.518 93.143,171.200 93.810 C 170.883 94.477,170.445 95.171,170.227 95.352 C 170.009 95.533,169.140 97.105,168.295 98.845 C 167.450 100.586,166.582 102.157,166.366 102.336 C 166.150 102.515,165.974 102.866,165.974 103.117 C 165.974 103.368,165.799 103.718,165.584 103.896 C 165.370 104.074,165.195 104.425,165.195 104.675 C 165.195 104.926,165.019 105.277,164.805 105.455 C 164.591 105.632,164.413 105.968,164.410 106.201 C 164.406 106.433,163.763 107.905,162.981 109.472 C 162.199 111.039,161.558 112.472,161.558 112.657 C 161.558 112.843,161.450 113.197,161.317 113.445 C 161.184 113.693,160.472 115.182,159.734 116.753 C 158.996 118.325,158.286 119.813,158.157 120.061 C 158.028 120.309,157.922 120.675,157.922 120.874 C 157.922 121.072,157.747 121.381,157.532 121.558 C 157.318 121.736,157.143 122.087,157.143 122.338 C 157.143 122.588,156.968 122.939,156.753 123.117 C 156.539 123.295,156.364 123.645,156.364 123.896 C 156.364 124.147,156.188 124.497,155.974 124.675 C 155.760 124.853,155.584 125.204,155.584 125.455 C 155.584 125.705,155.412 126.054,155.201 126.229 C 154.990 126.404,154.523 127.171,154.162 127.934 C 153.801 128.696,153.384 129.396,153.236 129.487 C 153.087 129.579,152.664 130.132,152.295 130.717 C 151.245 132.380,149.053 134.923,145.748 138.312 C 140.964 143.216,141.359 142.594,140.880 145.988 C 139.984 152.333,139.724 154.853,139.459 159.740 C 139.167 165.136,139.262 169.570,139.693 170.674 L 139.957 171.349 131.082 171.531 C 126.201 171.631,121.769 171.824,121.234 171.960 C 120.698 172.096,119.792 172.329,119.221 172.478 C 116.929 173.074,118.506 174.328,122.468 175.060 C 124.989 175.526,263.480 175.253,266.753 174.775 C 268.110 174.577,269.349 174.332,269.505 174.230 C 269.662 174.128,270.275 173.967,270.869 173.872 C 271.683 173.742,271.948 173.582,271.948 173.220 C 271.948 172.309,270.577 171.917,266.922 171.782 C 262.016 171.602,262.500 171.916,262.160 168.684 C 262.000 167.165,261.741 165.793,261.584 165.636 C 261.427 165.479,261.299 165.168,261.299 164.945 C 261.299 163.539,258.649 160.958,256.494 160.263 C 253.834 159.405,253.952 159.502,254.136 158.333 C 254.227 157.750,254.415 156.465,254.552 155.478 C 254.808 153.633,255.121 152.452,255.745 150.965 C 255.943 150.496,256.104 149.963,256.104 149.781 C 256.104 149.598,256.513 148.619,257.013 147.604 C 257.513 146.589,257.923 145.603,257.924 145.412 C 257.926 145.221,258.214 144.481,258.566 143.766 C 258.917 143.052,259.208 142.316,259.213 142.130 C 259.217 141.945,259.465 141.302,259.764 140.702 C 260.063 140.101,260.650 138.575,261.068 137.310 C 261.486 136.044,262.118 134.375,262.473 133.601 C 262.827 132.826,263.118 132.050,263.118 131.875 C 263.119 131.701,263.278 131.255,263.472 130.885 C 263.665 130.514,263.908 129.755,264.013 129.197 C 264.277 127.787,265.098 126.067,265.598 125.875 C 265.828 125.787,281.498 125.714,300.419 125.714 C 338.905 125.714,335.578 125.525,334.574 127.660 C 334.272 128.301,334.026 128.940,334.026 129.079 C 334.026 129.219,333.500 130.405,332.857 131.717 C 332.214 133.028,331.688 134.218,331.688 134.363 C 331.688 134.601,331.249 135.597,329.838 138.555 C 329.570 139.118,329.351 139.691,329.351 139.829 C 329.351 140.052,328.708 141.518,327.636 143.741 C 327.436 144.156,327.273 144.600,327.273 144.728 C 327.273 144.856,326.747 146.078,326.104 147.445 C 325.461 148.811,324.935 150.053,324.935 150.205 C 324.935 150.357,324.468 151.447,323.896 152.628 C 323.325 153.809,322.857 154.899,322.857 155.051 C 322.857 155.202,322.331 156.430,321.688 157.778 C 321.045 159.127,320.519 160.359,320.519 160.517 C 320.519 160.674,319.994 161.884,319.351 163.206 C 318.708 164.527,318.182 165.756,318.182 165.937 C 318.182 166.117,317.714 167.244,317.143 168.442 C 316.571 169.639,316.104 170.738,316.104 170.885 C 316.104 171.031,315.578 172.224,314.935 173.535 C 314.292 174.846,313.766 176.037,313.766 176.181 C 313.766 176.419,313.360 177.352,311.925 180.407 C 311.652 180.987,311.429 181.561,311.429 181.680 C 311.429 181.875,310.745 183.422,309.714 185.559 C 309.514 185.974,309.351 186.418,309.351 186.546 C 309.351 186.674,308.825 187.896,308.182 189.263 C 307.539 190.629,307.013 191.872,307.013 192.024 C 307.013 192.175,306.545 193.266,305.974 194.446 C 305.403 195.627,304.935 196.717,304.935 196.869 C 304.935 197.021,304.409 198.248,303.766 199.597 C 303.123 200.945,302.597 202.170,302.597 202.318 C 302.597 202.467,302.071 203.684,301.429 205.024 C 300.786 206.363,300.260 207.599,300.260 207.771 C 300.260 207.942,299.792 209.062,299.221 210.260 C 298.649 211.457,298.182 212.556,298.182 212.703 C 298.182 212.849,297.666 214.021,297.036 215.307 C 296.405 216.592,295.812 217.970,295.718 218.368 C 295.487 219.342,294.229 221.625,293.856 221.747 C 293.676 221.806,293.440 221.305,293.268 220.503 C 291.289 211.277,283.265 202.818,272.857 198.986 C 255.172 192.475,233.593 206.094,232.019 224.761 C 231.934 225.762,231.708 226.696,231.500 226.904 C 231.186 227.218,226.493 227.273,199.632 227.273 C 163.561 227.273,167.441 227.599,167.194 224.545 C 166.306 213.564,156.528 201.942,145.584 198.863 C 144.727 198.622,143.675 198.316,143.247 198.183 C 139.246 196.940,131.205 197.359,126.094 199.076 C 116.450 202.316,107.701 211.782,105.840 220.988 C 105.574 222.305,104.926 221.950,104.267 220.129 C 103.957 219.272,103.397 217.999,103.021 217.299 C 102.645 216.599,102.338 215.861,102.338 215.658 C 102.338 215.456,101.812 214.201,101.169 212.871 C 100.526 211.540,100.000 210.319,100.000 210.157 C 100.000 209.996,99.890 209.660,99.755 209.412 C 99.347 208.660,98.017 205.658,97.540 204.416 C 97.294 203.773,96.764 202.545,96.362 201.688 C 95.961 200.831,95.421 199.545,95.161 198.831 C 94.902 198.117,94.414 197.011,94.077 196.375 C 93.739 195.738,93.287 194.686,93.071 194.037 C 92.855 193.388,92.355 192.156,91.959 191.299 C 90.542 188.228,89.282 185.296,88.666 183.636 C 88.322 182.708,87.753 181.364,87.403 180.649 C 87.053 179.935,86.543 178.766,86.269 178.052 C 85.995 177.338,85.466 176.181,85.093 175.481 C 84.721 174.781,84.416 174.043,84.416 173.840 C 84.416 173.637,83.890 172.383,83.247 171.053 C 82.604 169.722,82.078 168.501,82.078 168.339 C 82.078 168.177,81.968 167.842,81.833 167.594 C 81.425 166.842,80.095 163.840,79.618 162.597 C 79.371 161.955,78.844 160.727,78.446 159.870 C 78.048 159.013,77.574 157.903,77.392 157.403 C 77.211 156.903,76.687 155.675,76.230 154.675 C 75.772 153.675,75.247 152.448,75.064 151.948 C 74.880 151.448,74.410 150.338,74.019 149.481 C 73.628 148.623,72.923 146.987,72.452 145.844 C 71.981 144.701,71.507 143.646,71.399 143.500 C 71.291 143.354,71.009 142.652,70.772 141.942 C 70.535 141.231,70.005 139.948,69.595 139.091 C 69.186 138.234,68.625 136.948,68.350 136.234 C 68.074 135.519,67.544 134.362,67.171 133.663 C 66.798 132.963,66.494 132.233,66.494 132.041 C 66.494 131.849,65.964 130.566,65.317 129.191 C 63.475 125.275,60.526 125.714,88.667 125.714 C 107.155 125.714,112.957 125.788,113.195 126.026 C 113.403 126.234,113.506 127.391,113.506 129.517 C 113.506 131.266,113.610 132.761,113.737 132.839 C 113.864 132.918,114.046 133.290,114.140 133.667 C 114.571 135.383,119.189 140.779,120.227 140.779 C 120.437 140.779,120.793 140.938,121.019 141.133 C 123.227 143.039,131.542 143.016,135.844 141.092 C 139.862 139.296,146.555 133.336,149.613 128.831 C 150.849 127.011,156.364 116.263,156.364 115.675 C 156.364 115.478,156.475 115.115,156.611 114.867 C 156.747 114.619,158.070 111.961,159.550 108.961 C 162.569 102.845,162.752 102.506,163.571 101.475 C 163.893 101.070,164.156 100.591,164.156 100.410 C 164.156 100.229,164.381 99.877,164.656 99.628 C 164.931 99.379,165.480 98.514,165.876 97.705 C 166.272 96.896,166.816 95.983,167.084 95.677 C 167.352 95.371,167.767 94.771,168.006 94.345 C 168.783 92.961,169.969 91.389,171.458 89.768 C 172.260 88.896,172.962 88.040,173.017 87.867 C 173.202 87.284,176.484 85.244,176.582 85.651 C 176.631 85.854,176.417 86.290,176.108 86.619 M34.435 96.123 C 54.655 98.109,66.136 119.739,56.582 137.845 C 48.712 152.759,28.507 157.191,14.825 147.006 C 0.791 136.560,-0.494 115.922,12.137 103.868 C 15.973 100.207,19.637 98.208,25.455 96.601 C 26.194 96.397,28.523 96.103,31.189 95.879 C 31.414 95.860,32.875 95.970,34.435 96.123 M370.947 96.103 C 373.626 96.360,374.170 96.468,376.883 97.279 C 393.023 102.101,401.351 121.627,393.721 136.753 C 380.231 163.493,340.166 154.166,340.166 124.286 C 340.166 108.386,351.024 97.237,367.830 95.879 C 368.064 95.860,369.467 95.961,370.947 96.103 M197.187 105.065 C 197.048 105.910,195.044 107.765,193.506 108.472 C 192.721 108.833,191.713 109.546,191.268 110.056 C 190.312 111.149,189.731 111.022,189.987 109.774 C 190.079 109.327,190.220 108.581,190.301 108.116 C 190.448 107.266,191.670 105.974,192.328 105.974 C 192.515 105.974,193.003 105.799,193.412 105.586 C 193.821 105.373,194.390 105.194,194.675 105.188 C 194.961 105.183,195.428 105.002,195.712 104.787 C 196.436 104.240,197.296 104.402,197.187 105.065 M257.403 113.550 C 257.403 114.722,254.694 119.263,252.766 121.324 C 250.763 123.465,249.910 124.073,246.709 125.642 C 245.830 126.073,245.183 126.573,245.104 126.883 C 245.031 127.169,244.846 127.870,244.694 128.442 C 244.541 129.013,244.120 131.877,243.758 134.805 C 243.396 137.734,242.937 141.240,242.738 142.597 C 241.403 151.694,241.389 153.418,242.635 155.242 C 243.044 155.840,243.640 156.399,243.962 156.485 C 245.967 157.022,246.672 157.277,247.060 157.603 C 247.300 157.805,247.884 158.164,248.358 158.401 C 249.846 159.144,252.612 163.548,253.033 165.844 C 254.086 171.588,254.025 172.005,252.152 171.897 L 250.791 171.818 250.587 170.649 C 250.474 170.006,250.263 168.665,250.119 167.668 C 249.974 166.671,249.742 165.742,249.603 165.603 C 249.464 165.464,249.351 165.187,249.351 164.987 C 249.351 164.498,247.630 161.737,246.927 161.096 C 246.350 160.571,244.818 160.152,242.397 159.857 C 240.643 159.643,239.670 158.438,238.526 155.065 C 238.309 154.422,237.986 153.545,237.809 153.117 C 237.098 151.391,236.816 150.457,236.619 149.171 C 236.505 148.429,236.328 147.685,236.225 147.518 C 235.519 146.377,235.116 137.366,235.598 133.522 C 236.325 127.724,238.053 124.675,240.614 124.675 C 242.511 124.675,251.482 118.830,254.935 115.345 C 256.999 113.262,257.403 112.968,257.403 113.550 M141.558 126.187 C 141.558 128.191,133.729 134.150,129.671 135.233 C 125.972 136.221,120.779 134.382,120.779 132.084 C 120.779 131.910,120.607 131.423,120.396 131.000 C 119.760 129.725,119.584 126.687,120.116 126.155 C 120.821 125.450,141.558 125.481,141.558 126.187 M193.729 126.984 C 194.261 127.321,193.682 127.579,192.215 127.658 C 191.529 127.695,190.838 127.806,190.679 127.904 C 190.503 128.012,190.390 127.879,190.390 127.563 C 190.390 127.155,190.597 127.023,191.364 126.942 C 193.148 126.756,193.374 126.760,193.729 126.984 M142.727 201.156 C 153.438 204.113,160.825 211.388,163.706 221.818 C 164.469 224.580,164.528 232.788,163.803 235.325 C 158.531 253.773,139.730 262.353,123.173 253.866 C 103.461 243.762,102.699 215.826,121.824 204.370 C 127.623 200.897,136.719 199.498,142.727 201.156 M270.035 201.271 C 288.487 206.317,296.905 226.532,287.479 243.161 C 285.699 246.302,279.126 252.987,277.819 252.987 C 277.745 252.987,277.125 253.317,276.440 253.720 C 271.486 256.635,260.067 258.174,256.656 256.386 C 256.424 256.264,255.738 256.082,255.131 255.982 C 254.525 255.881,253.963 255.692,253.882 255.562 C 253.802 255.431,253.538 255.322,253.296 255.319 C 252.797 255.312,248.994 253.440,247.348 252.392 C 244.221 250.399,240.855 246.800,238.672 243.117 C 237.644 241.382,237.253 240.564,236.310 238.182 C 233.736 231.681,234.532 222.112,238.227 215.142 C 244.023 204.208,258.188 198.030,270.035 201.271 " stroke="none" fill="#f7f7f7" fill-rule="evenodd"></path><path id="path1" d="M0.000 61.834 C 0.000 95.952,0.099 123.606,0.222 123.530 C 0.344 123.454,0.523 122.340,0.620 121.054 C 2.104 101.403,22.835 88.180,41.981 94.673 C 51.466 97.889,59.770 106.752,61.939 115.974 C 62.544 118.547,62.862 118.167,66.818 110.135 C 68.782 106.147,70.390 102.659,70.390 102.383 C 70.390 102.107,70.565 101.736,70.779 101.558 C 70.994 101.381,71.169 101.030,71.169 100.779 C 71.169 100.528,71.344 100.178,71.558 100.000 C 71.773 99.822,71.948 99.472,71.948 99.221 C 71.948 98.970,72.123 98.619,72.338 98.442 C 72.552 98.264,72.727 97.973,72.727 97.795 C 72.727 97.617,74.773 93.380,77.273 88.378 C 79.773 83.376,81.818 79.151,81.818 78.989 C 81.818 78.718,82.080 78.129,82.639 77.143 C 82.761 76.929,82.927 76.578,83.007 76.364 C 83.088 76.149,83.264 75.799,83.397 75.584 C 83.530 75.370,83.710 75.019,83.796 74.805 C 83.882 74.591,85.985 70.309,88.469 65.290 C 90.954 60.271,92.987 56.032,92.987 55.871 C 92.987 55.601,93.249 55.011,93.808 54.026 C 93.930 53.812,94.095 53.461,94.176 53.247 C 94.257 53.032,94.432 52.682,94.566 52.468 C 94.699 52.253,94.879 51.903,94.966 51.688 C 95.053 51.474,97.093 47.325,99.501 42.468 C 104.226 32.936,104.780 31.545,105.042 28.571 C 106.325 14.018,118.643 1.704,133.002 0.620 C 134.288 0.523,135.403 0.344,135.478 0.222 C 135.554 0.099,105.229 0.000,67.808 0.000 L 0.000 0.000 0.000 61.834 M136.990 0.222 C 137.065 0.344,138.179 0.523,139.465 0.620 C 150.906 1.484,161.550 9.811,165.731 21.169 C 166.353 22.861,167.273 26.932,167.273 27.998 C 167.273 30.372,163.600 30.130,199.588 30.130 C 224.700 30.130,231.419 30.062,231.621 29.805 C 231.762 29.627,231.952 28.637,232.044 27.606 C 232.290 24.823,232.785 23.037,234.365 19.221 C 238.548 9.121,249.049 1.429,259.756 0.620 C 261.042 0.523,262.156 0.344,262.231 0.222 C 262.307 0.099,234.240 0.000,199.610 0.000 C 164.981 0.000,136.914 0.099,136.990 0.222 M263.896 0.233 C 264.110 0.353,265.279 0.529,266.494 0.626 C 282.024 1.856,294.470 15.868,294.330 31.967 C 294.322 32.905,294.457 34.074,294.631 34.564 C 295.302 36.455,336.767 119.184,337.011 119.119 C 337.153 119.080,337.518 118.065,337.823 116.862 C 342.773 97.349,363.958 87.429,382.060 96.149 C 391.690 100.787,398.600 110.723,399.380 121.054 C 399.477 122.340,399.656 123.454,399.778 123.530 C 399.901 123.606,400.000 95.952,400.000 61.834 L 400.000 0.000 331.753 0.008 C 294.218 0.012,263.682 0.114,263.896 0.233 M132.338 3.635 C 130.528 3.860,129.788 4.043,126.953 4.966 C 109.089 10.782,102.135 33.235,113.449 48.571 C 123.690 62.454,144.244 63.925,156.304 51.639 C 159.932 47.944,162.059 44.160,163.799 38.312 C 164.489 35.988,164.489 27.585,163.797 25.195 C 159.510 10.373,147.019 1.812,132.338 3.635 M259.351 3.648 C 241.462 5.629,229.965 25.216,236.745 42.162 C 243.542 59.153,263.799 65.252,279.284 54.969 C 283.911 51.896,288.056 46.330,289.856 40.771 C 290.156 39.847,290.516 38.740,290.658 38.312 C 290.799 37.883,291.044 36.181,291.201 34.529 C 292.174 24.317,287.997 14.969,279.719 8.831 C 276.898 6.739,274.705 5.712,269.740 4.157 C 267.617 3.492,262.864 3.259,259.351 3.648 M167.721 33.615 C 167.502 33.834,167.288 34.804,167.191 36.017 C 167.102 37.136,166.918 38.403,166.784 38.831 C 166.649 39.260,166.331 40.312,166.078 41.169 C 163.754 49.037,156.921 56.830,149.481 60.098 C 148.909 60.349,148.208 60.661,147.922 60.791 C 140.400 64.212,129.712 63.664,121.597 59.443 C 113.974 55.477,107.140 46.796,105.829 39.416 C 105.476 37.424,104.978 38.109,101.103 45.917 C 99.067 50.020,97.402 53.567,97.402 53.799 C 97.402 54.032,97.227 54.368,97.013 54.545 C 96.799 54.723,96.623 55.074,96.623 55.325 C 96.623 55.575,96.448 55.926,96.234 56.104 C 96.019 56.282,95.844 56.632,95.844 56.883 C 95.844 57.134,95.669 57.484,95.455 57.662 C 95.240 57.840,95.063 58.176,95.061 58.408 C 95.058 58.641,93.071 62.800,90.645 67.652 C 88.219 72.503,86.234 76.667,86.234 76.906 C 86.234 77.144,86.058 77.484,85.844 77.662 C 85.630 77.840,85.455 78.191,85.455 78.442 C 85.455 78.692,85.279 79.043,85.065 79.221 C 84.851 79.399,84.675 79.749,84.675 80.000 C 84.675 80.251,84.500 80.601,84.286 80.779 C 84.071 80.957,83.894 81.293,83.891 81.525 C 83.888 81.758,81.901 85.915,79.475 90.764 C 77.050 95.612,75.065 99.776,75.065 100.018 C 75.065 100.259,74.890 100.601,74.675 100.779 C 74.461 100.957,74.286 101.308,74.286 101.558 C 74.286 101.809,74.110 102.160,73.896 102.338 C 73.682 102.516,73.506 102.866,73.506 103.117 C 73.506 103.368,73.331 103.718,73.117 103.896 C 72.903 104.074,72.727 104.394,72.727 104.608 C 72.727 104.822,70.803 108.842,68.451 113.542 C 66.069 118.303,64.241 122.257,64.323 122.472 C 64.453 122.809,67.516 122.857,88.720 122.857 C 115.921 122.857,113.236 123.066,113.624 120.921 C 114.634 115.336,122.014 110.052,125.300 112.562 C 127.556 114.285,126.983 116.533,123.431 119.893 C 120.053 123.090,119.387 122.887,132.965 122.800 L 144.382 122.727 145.199 121.948 C 145.649 121.519,146.182 120.818,146.384 120.390 C 146.586 119.961,147.158 119.084,147.656 118.442 C 149.653 115.863,151.059 113.851,151.406 113.077 C 151.544 112.770,151.783 112.440,151.938 112.344 C 152.092 112.248,152.962 111.039,153.869 109.657 C 154.777 108.274,155.768 106.920,156.071 106.648 C 156.375 106.376,156.623 106.000,156.623 105.813 C 156.623 105.626,156.954 105.089,157.359 104.619 C 157.763 104.150,158.173 103.550,158.270 103.286 C 158.451 102.790,158.604 102.575,160.786 99.763 C 161.496 98.846,162.078 97.962,162.078 97.798 C 162.078 97.634,162.441 97.156,162.886 96.737 C 163.330 96.317,164.068 95.423,164.526 94.750 C 164.984 94.077,166.286 92.543,167.420 91.342 C 168.553 90.141,170.474 88.087,171.688 86.778 C 173.487 84.838,174.640 83.910,177.916 81.764 C 180.128 80.315,183.087 78.274,184.493 77.227 C 185.900 76.181,187.149 75.325,187.270 75.325 C 187.391 75.325,188.405 74.779,189.524 74.113 C 192.283 72.469,198.474 69.355,198.987 69.353 C 199.216 69.352,199.953 69.058,200.624 68.701 C 201.296 68.344,202.044 68.051,202.286 68.050 C 202.529 68.049,203.041 67.885,203.424 67.685 C 203.807 67.485,204.509 67.239,204.983 67.137 C 205.456 67.036,205.961 66.863,206.104 66.753 C 206.247 66.642,206.885 66.466,207.522 66.361 C 208.160 66.256,208.861 66.081,209.081 65.973 C 209.961 65.539,214.953 64.444,217.403 64.148 C 218.474 64.019,220.169 63.798,221.169 63.658 C 223.586 63.319,231.569 63.310,232.773 63.645 C 233.299 63.791,234.404 63.995,235.229 64.098 C 236.546 64.263,236.749 64.365,236.882 64.935 C 237.027 65.551,237.156 65.593,239.362 65.758 C 241.793 65.939,244.456 66.479,245.391 66.979 C 245.693 67.141,246.136 67.273,246.376 67.273 C 247.141 67.273,252.025 69.841,253.506 71.022 C 256.572 73.467,262.597 80.398,262.597 81.480 C 262.597 81.563,262.929 82.170,263.334 82.828 C 263.739 83.487,264.282 84.669,264.541 85.455 C 264.799 86.240,265.168 87.114,265.362 87.395 C 265.556 87.677,265.718 88.203,265.723 88.564 C 265.727 88.925,265.902 89.448,266.112 89.725 C 266.322 90.002,266.494 90.551,266.494 90.943 C 266.494 91.336,266.599 91.723,266.729 91.803 C 266.858 91.883,267.047 92.562,267.148 93.312 C 267.250 94.062,267.426 94.854,267.541 95.072 C 268.745 97.368,268.190 112.059,266.602 119.935 C 266.256 121.654,266.234 122.155,266.494 122.468 C 267.032 123.117,334.803 123.052,334.810 122.403 C 334.816 121.701,293.731 39.670,293.496 39.915 C 293.381 40.033,293.034 40.890,292.725 41.818 C 286.135 61.576,261.835 69.373,244.836 57.182 C 237.831 52.159,232.691 43.565,232.021 35.758 C 231.936 34.761,231.708 33.823,231.500 33.615 C 230.947 33.062,168.275 33.061,167.721 33.615 M235.195 65.974 C 235.101 66.126,235.370 66.234,235.844 66.234 C 236.318 66.234,236.587 66.126,236.494 65.974 C 236.405 65.831,236.113 65.714,235.844 65.714 C 235.575 65.714,235.283 65.831,235.195 65.974 M228.571 68.713 C 227.643 69.049,226.416 69.402,225.844 69.497 C 225.273 69.592,224.688 69.760,224.545 69.870 C 224.403 69.981,223.672 70.154,222.922 70.255 C 222.173 70.356,221.494 70.544,221.414 70.674 C 221.334 70.803,220.931 70.909,220.519 70.909 C 220.108 70.909,219.705 71.015,219.625 71.144 C 219.545 71.274,218.871 71.464,218.127 71.566 C 217.383 71.668,216.594 71.850,216.374 71.969 C 216.154 72.089,215.448 72.297,214.805 72.432 C 213.364 72.735,212.207 73.140,210.516 73.934 C 209.799 74.270,209.047 74.545,208.843 74.545 C 208.377 74.545,203.321 77.007,202.006 77.873 C 200.945 78.572,199.505 78.399,198.365 77.436 C 197.686 76.861,193.458 76.686,192.665 77.200 C 192.342 77.409,191.758 77.659,191.366 77.755 C 190.510 77.966,188.571 80.314,188.571 81.140 C 188.571 81.456,188.463 81.825,188.331 81.961 C 188.198 82.097,188.052 83.745,188.006 85.624 L 187.922 89.039 186.494 90.592 C 181.781 95.715,179.984 99.825,179.883 105.714 C 179.855 107.357,179.710 108.994,179.560 109.351 C 178.694 111.413,178.033 114.956,177.758 118.997 C 177.564 121.857,177.957 123.070,179.663 124.879 C 181.017 126.315,181.144 126.660,180.518 127.202 C 180.224 127.455,179.491 128.174,178.888 128.799 C 177.346 130.399,172.783 134.500,171.338 135.584 C 170.672 136.084,169.806 136.760,169.414 137.086 C 168.633 137.736,161.665 142.402,161.039 142.695 C 158.414 143.923,154.256 147.405,153.865 148.701 C 153.778 148.987,153.421 149.528,153.070 149.903 C 152.694 150.304,152.292 151.213,152.091 152.111 C 151.904 152.950,151.487 154.630,151.165 155.844 C 149.354 162.673,149.368 162.827,151.901 163.641 C 154.689 164.537,155.765 165.967,156.030 169.135 C 156.117 170.169,156.341 171.110,156.551 171.320 C 157.111 171.879,179.687 171.869,179.902 171.310 C 180.047 170.933,179.804 170.337,177.888 166.354 C 177.335 165.205,176.883 164.082,176.883 163.858 C 176.883 163.633,176.532 162.793,176.104 161.990 C 175.675 161.186,175.325 160.307,175.325 160.035 C 175.325 159.763,175.150 159.205,174.937 158.796 C 174.723 158.387,174.548 157.812,174.547 157.519 C 174.546 157.227,174.445 156.876,174.323 156.740 C 174.019 156.402,173.307 154.104,173.094 152.771 C 172.998 152.169,172.817 151.614,172.693 151.537 C 172.569 151.461,172.468 151.159,172.468 150.868 C 172.468 150.577,172.296 149.970,172.087 149.520 C 170.695 146.528,171.141 143.626,173.242 141.994 C 174.693 140.867,176.538 138.728,177.421 137.149 C 177.645 136.748,178.142 136.047,178.525 135.592 C 178.908 135.138,179.221 134.642,179.221 134.492 C 179.221 134.342,179.601 133.776,180.065 133.235 C 180.529 132.694,181.318 131.704,181.818 131.034 C 183.458 128.839,183.917 128.626,184.830 129.642 C 188.083 133.262,194.933 134.391,199.405 132.044 C 200.874 131.274,204.590 127.691,205.838 125.844 C 207.571 123.278,208.489 122.522,209.051 123.199 C 209.608 123.870,207.960 127.763,206.234 129.855 C 204.548 131.896,201.139 135.531,199.601 136.926 C 198.761 137.688,197.881 138.487,197.646 138.701 C 196.870 139.408,193.170 142.041,189.879 144.230 C 186.840 146.251,186.619 146.455,186.300 147.542 C 185.828 149.152,186.006 157.116,186.572 159.740 C 187.353 163.356,187.277 163.227,188.726 163.406 C 192.426 163.864,194.256 165.238,194.712 167.898 C 194.788 168.340,194.919 168.877,195.004 169.091 C 195.089 169.305,195.283 169.948,195.436 170.519 L 195.714 171.558 213.232 171.625 C 231.865 171.696,231.593 171.716,230.648 170.388 C 229.934 169.384,229.029 167.791,228.289 166.234 C 226.482 162.429,225.974 161.310,225.974 161.135 C 225.974 160.968,224.062 156.874,223.354 155.523 C 223.223 155.275,223.116 154.924,223.114 154.744 C 223.113 154.563,222.587 153.364,221.945 152.080 C 221.304 150.795,220.779 149.595,220.779 149.412 C 220.779 149.229,220.312 148.150,219.740 147.013 C 219.169 145.876,218.701 144.770,218.701 144.555 C 218.701 144.340,218.363 143.490,217.950 142.666 C 217.129 141.029,215.584 137.131,215.584 136.696 C 215.584 136.546,215.410 136.088,215.196 135.679 C 214.983 135.270,214.808 134.679,214.807 134.366 C 214.806 134.053,214.702 133.733,214.575 133.655 C 214.448 133.576,214.265 133.087,214.168 132.568 C 214.070 132.049,213.891 131.434,213.770 131.202 C 213.355 130.404,212.681 124.545,212.769 122.496 L 212.857 120.446 215.100 119.249 C 218.649 117.355,223.117 113.548,223.117 112.419 C 223.117 112.250,223.330 111.870,223.591 111.575 C 223.852 111.280,224.214 110.513,224.397 109.870 C 225.000 107.750,225.094 107.625,226.406 107.200 C 227.097 106.976,228.130 106.711,228.701 106.610 C 229.273 106.508,229.857 106.337,230.000 106.228 C 230.143 106.119,230.786 105.975,231.429 105.908 C 232.071 105.841,233.285 105.645,234.125 105.471 C 237.168 104.843,245.022 105.463,246.921 106.481 C 247.467 106.773,248.064 107.013,248.246 107.013 C 248.429 107.013,249.306 107.359,250.195 107.783 C 252.587 108.922,252.766 108.397,250.649 106.452 C 246.199 102.361,237.952 100.169,232.343 101.587 C 231.768 101.732,230.773 101.969,230.130 102.114 C 229.487 102.258,228.593 102.543,228.143 102.747 C 227.692 102.950,227.102 103.117,226.831 103.117 C 226.560 103.117,226.200 103.254,226.032 103.422 C 225.522 103.933,224.676 102.948,224.674 101.843 C 224.673 101.329,224.517 100.611,224.327 100.247 C 224.136 99.883,223.912 99.162,223.828 98.645 C 223.647 97.524,222.939 96.364,222.438 96.364 C 222.153 96.364,222.078 96.970,222.077 99.286 C 222.074 108.503,219.092 113.631,211.556 117.383 C 206.876 119.713,204.794 121.461,201.429 125.882 C 198.057 130.312,191.647 131.306,188.227 127.928 C 187.631 127.339,186.836 126.665,186.460 126.430 C 185.232 125.662,185.313 123.848,186.645 122.264 C 187.060 121.772,187.211 121.393,187.056 121.237 C 186.672 120.854,185.785 121.457,185.072 122.587 C 184.287 123.830,184.227 123.865,183.160 123.703 C 180.994 123.373,180.337 120.847,181.184 116.104 C 181.401 114.890,181.753 112.786,181.967 111.429 C 182.180 110.071,182.468 108.622,182.606 108.208 C 182.744 107.794,182.857 106.932,182.857 106.292 C 182.857 104.799,183.847 100.514,184.316 99.980 C 184.514 99.754,184.675 99.392,184.675 99.176 C 184.675 98.959,184.906 98.573,185.188 98.318 C 185.470 98.062,185.780 97.606,185.875 97.304 C 186.131 96.499,187.493 94.915,191.429 90.845 C 196.481 85.620,199.400 83.523,207.187 79.527 C 208.620 78.791,210.107 78.182,210.469 78.182 C 210.696 78.182,211.431 77.890,212.103 77.532 C 212.775 77.175,213.576 76.883,213.883 76.883 C 214.190 76.883,214.572 76.752,214.732 76.592 C 214.892 76.432,215.471 76.213,216.018 76.105 C 217.627 75.786,219.580 75.278,220.010 75.066 C 220.230 74.958,220.931 74.783,221.568 74.678 C 222.206 74.573,222.844 74.396,222.987 74.285 C 223.130 74.174,224.002 73.998,224.925 73.893 C 225.847 73.788,226.783 73.610,227.003 73.497 C 227.725 73.124,235.639 72.460,239.351 72.460 C 244.228 72.460,244.628 71.681,240.260 70.689 C 239.617 70.543,238.097 70.197,236.883 69.921 C 235.669 69.645,234.043 69.338,233.269 69.240 C 232.496 69.142,231.574 68.835,231.221 68.557 C 230.465 67.962,230.683 67.949,228.571 68.713 M196.790 80.306 C 197.413 80.617,197.922 80.973,197.922 81.098 C 197.922 81.422,196.160 83.037,194.935 83.835 C 194.364 84.208,193.370 85.008,192.727 85.613 C 190.887 87.345,190.511 87.263,190.559 85.145 C 190.662 80.564,193.262 78.544,196.790 80.306 M213.766 80.680 C 209.116 81.543,204.935 86.464,204.935 91.074 C 204.935 92.111,207.271 90.027,209.221 87.249 C 211.372 84.185,217.922 82.944,217.922 85.601 C 217.922 85.932,218.051 86.283,218.209 86.380 C 218.944 86.835,218.031 91.248,216.610 94.103 C 215.149 97.038,216.033 97.169,218.916 94.442 C 224.919 88.765,221.366 79.271,213.766 80.680 M174.805 86.417 C 173.877 87.041,173.072 87.693,173.017 87.867 C 172.962 88.040,172.260 88.896,171.458 89.768 C 169.969 91.389,168.783 92.961,168.006 94.345 C 167.767 94.771,167.352 95.371,167.084 95.677 C 166.816 95.983,166.272 96.896,165.876 97.705 C 165.480 98.514,164.931 99.379,164.656 99.628 C 164.381 99.877,164.156 100.229,164.156 100.410 C 164.156 100.591,163.893 101.070,163.571 101.475 C 162.752 102.506,162.569 102.845,159.550 108.961 C 158.070 111.961,156.747 114.619,156.611 114.867 C 156.475 115.115,156.364 115.478,156.364 115.675 C 156.364 116.263,150.849 127.011,149.613 128.831 C 146.555 133.336,139.862 139.296,135.844 141.092 C 131.542 143.016,123.227 143.039,121.019 141.133 C 120.793 140.938,120.437 140.779,120.227 140.779 C 119.189 140.779,114.571 135.383,114.140 133.667 C 114.046 133.290,113.864 132.918,113.737 132.839 C 113.610 132.761,113.506 131.266,113.506 129.517 C 113.506 127.391,113.403 126.234,113.195 126.026 C 112.957 125.788,107.155 125.714,88.667 125.714 C 60.526 125.714,63.475 125.275,65.317 129.191 C 65.964 130.566,66.494 131.849,66.494 132.041 C 66.494 132.233,66.798 132.963,67.171 133.663 C 67.544 134.362,68.074 135.519,68.350 136.234 C 68.625 136.948,69.186 138.234,69.595 139.091 C 70.005 139.948,70.535 141.231,70.772 141.942 C 71.009 142.652,71.291 143.354,71.399 143.500 C 71.507 143.646,71.981 144.701,72.452 145.844 C 72.923 146.987,73.628 148.623,74.019 149.481 C 74.410 150.338,74.880 151.448,75.064 151.948 C 75.247 152.448,75.772 153.675,76.230 154.675 C 76.687 155.675,77.211 156.903,77.392 157.403 C 77.574 157.903,78.048 159.013,78.446 159.870 C 78.844 160.727,79.371 161.955,79.618 162.597 C 80.095 163.840,81.425 166.842,81.833 167.594 C 81.968 167.842,82.078 168.177,82.078 168.339 C 82.078 168.501,82.604 169.722,83.247 171.053 C 83.890 172.383,84.416 173.637,84.416 173.840 C 84.416 174.043,84.721 174.781,85.093 175.481 C 85.466 176.181,85.995 177.338,86.269 178.052 C 86.543 178.766,87.053 179.935,87.403 180.649 C 87.753 181.364,88.322 182.708,88.666 183.636 C 89.282 185.296,90.542 188.228,91.959 191.299 C 92.355 192.156,92.855 193.388,93.071 194.037 C 93.287 194.686,93.739 195.738,94.077 196.375 C 94.414 197.011,94.902 198.117,95.161 198.831 C 95.421 199.545,95.961 200.831,96.362 201.688 C 96.764 202.545,97.294 203.773,97.540 204.416 C 98.017 205.658,99.347 208.660,99.755 209.412 C 99.890 209.660,100.000 209.996,100.000 210.157 C 100.000 210.319,100.526 211.540,101.169 212.871 C 101.812 214.201,102.338 215.456,102.338 215.658 C 102.338 215.861,102.645 216.599,103.021 217.299 C 103.397 217.999,103.957 219.272,104.267 220.129 C 104.926 221.950,105.574 222.305,105.840 220.988 C 107.701 211.782,116.450 202.316,126.094 199.076 C 131.205 197.359,139.246 196.940,143.247 198.183 C 143.675 198.316,144.727 198.622,145.584 198.863 C 156.528 201.942,166.306 213.564,167.194 224.545 C 167.441 227.599,163.561 227.273,199.632 227.273 C 226.493 227.273,231.186 227.218,231.500 226.904 C 231.708 226.696,231.934 225.762,232.019 224.761 C 233.516 207.009,253.074 193.621,270.649 198.317 C 281.658 201.259,291.134 210.553,293.268 220.503 C 293.440 221.305,293.676 221.806,293.856 221.747 C 294.229 221.625,295.487 219.342,295.718 218.368 C 295.812 217.970,296.405 216.592,297.036 215.307 C 297.666 214.021,298.182 212.849,298.182 212.703 C 298.182 212.556,298.649 211.457,299.221 210.260 C 299.792 209.062,300.260 207.942,300.260 207.771 C 300.260 207.599,300.786 206.363,301.429 205.024 C 302.071 203.684,302.597 202.467,302.597 202.318 C 302.597 202.170,303.123 200.945,303.766 199.597 C 304.409 198.248,304.935 197.021,304.935 196.869 C 304.935 196.717,305.403 195.627,305.974 194.446 C 306.545 193.266,307.013 192.175,307.013 192.024 C 307.013 191.872,307.539 190.629,308.182 189.263 C 308.825 187.896,309.351 186.674,309.351 186.546 C 309.351 186.418,309.514 185.974,309.714 185.559 C 310.745 183.422,311.429 181.875,311.429 181.680 C 311.429 181.561,311.652 180.987,311.925 180.407 C 313.360 177.352,313.766 176.419,313.766 176.181 C 313.766 176.037,314.292 174.846,314.935 173.535 C 315.578 172.224,316.104 171.031,316.104 170.885 C 316.104 170.738,316.571 169.639,317.143 168.442 C 317.714 167.244,318.182 166.117,318.182 165.937 C 318.182 165.756,318.708 164.527,319.351 163.206 C 319.994 161.884,320.519 160.674,320.519 160.517 C 320.519 160.359,321.045 159.127,321.688 157.778 C 322.331 156.430,322.857 155.202,322.857 155.051 C 322.857 154.899,323.325 153.809,323.896 152.628 C 324.468 151.447,324.935 150.357,324.935 150.205 C 324.935 150.053,325.461 148.811,326.104 147.445 C 326.747 146.078,327.273 144.856,327.273 144.728 C 327.273 144.600,327.436 144.156,327.636 143.741 C 328.708 141.518,329.351 140.052,329.351 139.829 C 329.351 139.691,329.570 139.118,329.838 138.555 C 331.249 135.597,331.688 134.601,331.688 134.363 C 331.688 134.218,332.214 133.028,332.857 131.717 C 333.500 130.405,334.026 129.219,334.026 129.079 C 334.026 128.940,334.272 128.301,334.574 127.660 C 335.578 125.525,338.905 125.714,300.419 125.714 C 281.498 125.714,265.828 125.787,265.598 125.875 C 265.098 126.067,264.277 127.787,264.013 129.197 C 263.908 129.755,263.665 130.514,263.472 130.885 C 263.278 131.255,263.119 131.701,263.118 131.875 C 263.118 132.050,262.827 132.826,262.473 133.601 C 262.118 134.375,261.486 136.044,261.068 137.310 C 260.650 138.575,260.063 140.101,259.764 140.702 C 259.465 141.302,259.217 141.945,259.213 142.130 C 259.208 142.316,258.917 143.052,258.566 143.766 C 258.214 144.481,257.926 145.221,257.924 145.412 C 257.923 145.603,257.513 146.589,257.013 147.604 C 256.513 148.619,256.104 149.598,256.104 149.781 C 256.104 149.963,255.943 150.496,255.745 150.965 C 255.121 152.452,254.808 153.633,254.552 155.478 C 254.415 156.465,254.227 157.750,254.136 158.333 C 253.952 159.502,253.834 159.405,256.494 160.263 C 258.649 160.958,261.299 163.539,261.299 164.945 C 261.299 165.168,261.427 165.479,261.584 165.636 C 261.741 165.793,262.000 167.165,262.160 168.684 C 262.500 171.916,262.016 171.602,266.922 171.782 C 270.577 171.917,271.948 172.309,271.948 173.220 C 271.948 173.582,271.683 173.742,270.869 173.872 C 270.275 173.967,269.662 174.128,269.505 174.230 C 269.349 174.332,268.110 174.577,266.753 174.775 C 263.480 175.253,124.989 175.526,122.468 175.060 C 118.506 174.328,116.929 173.074,119.221 172.478 C 119.792 172.329,120.698 172.096,121.234 171.960 C 121.769 171.824,126.201 171.631,131.082 171.531 L 139.957 171.349 139.693 170.674 C 138.393 167.344,140.275 144.169,142.003 142.222 C 142.391 141.785,144.076 140.026,145.748 138.312 C 149.053 134.923,151.245 132.380,152.295 130.717 C 152.664 130.132,153.087 129.579,153.236 129.487 C 153.384 129.396,153.801 128.696,154.162 127.934 C 154.523 127.171,154.990 126.404,155.201 126.229 C 155.412 126.054,155.584 125.705,155.584 125.455 C 155.584 125.204,155.760 124.853,155.974 124.675 C 156.188 124.497,156.364 124.147,156.364 123.896 C 156.364 123.645,156.539 123.295,156.753 123.117 C 156.968 122.939,157.143 122.588,157.143 122.338 C 157.143 122.087,157.318 121.736,157.532 121.558 C 157.747 121.381,157.922 121.072,157.922 120.874 C 157.922 120.675,158.028 120.309,158.157 120.061 C 158.286 119.813,158.996 118.325,159.734 116.753 C 160.472 115.182,161.184 113.693,161.317 113.445 C 161.450 113.197,161.558 112.843,161.558 112.657 C 161.558 112.472,162.199 111.039,162.981 109.472 C 163.763 107.905,164.406 106.433,164.410 106.201 C 164.413 105.968,164.591 105.632,164.805 105.455 C 165.019 105.277,165.195 104.926,165.195 104.675 C 165.195 104.425,165.370 104.074,165.584 103.896 C 165.799 103.718,165.974 103.368,165.974 103.117 C 165.974 102.866,166.150 102.515,166.366 102.336 C 166.582 102.157,167.450 100.586,168.295 98.845 C 169.140 97.105,170.009 95.533,170.227 95.352 C 170.445 95.171,170.883 94.477,171.200 93.810 C 171.518 93.143,172.079 92.226,172.447 91.773 C 173.416 90.580,174.609 88.887,175.111 87.993 C 175.350 87.566,175.799 86.948,176.108 86.619 C 177.296 85.355,176.556 85.240,174.805 86.417 M28.571 96.131 C 26.382 96.348,25.877 96.454,23.117 97.279 C -2.443 104.916,-2.987 142.364,22.338 150.994 C 48.761 159.999,70.963 129.659,54.333 107.273 C 49.134 100.274,38.888 95.230,31.189 95.879 C 30.963 95.898,29.786 96.011,28.571 96.131 M365.195 96.133 C 343.682 98.278,332.556 123.821,345.577 141.169 C 361.925 162.947,396.458 151.488,396.458 124.286 C 396.458 110.725,388.198 100.290,374.545 96.607 C 373.625 96.358,368.615 95.815,367.830 95.879 C 367.595 95.898,366.409 96.012,365.195 96.133 M195.712 104.787 C 195.428 105.002,194.961 105.183,194.675 105.188 C 194.390 105.194,193.821 105.373,193.412 105.586 C 193.003 105.799,192.515 105.974,192.328 105.974 C 191.670 105.974,190.448 107.266,190.301 108.116 C 190.220 108.581,190.079 109.327,189.987 109.774 C 189.731 111.022,190.312 111.149,191.268 110.056 C 191.713 109.546,192.721 108.833,193.506 108.472 C 195.044 107.765,197.048 105.910,197.187 105.065 C 197.296 104.402,196.436 104.240,195.712 104.787 M254.935 115.345 C 251.482 118.830,242.511 124.675,240.614 124.675 C 239.956 124.675,237.690 125.957,237.404 126.490 C 235.401 130.234,234.580 144.857,236.225 147.518 C 236.328 147.685,236.505 148.429,236.619 149.171 C 236.816 150.457,237.098 151.391,237.809 153.117 C 237.986 153.545,238.309 154.422,238.526 155.065 C 239.670 158.438,240.643 159.643,242.397 159.857 C 244.818 160.152,246.350 160.571,246.927 161.096 C 247.630 161.737,249.351 164.498,249.351 164.987 C 249.351 165.187,249.464 165.464,249.603 165.603 C 249.742 165.742,249.974 166.671,250.119 167.668 C 250.263 168.665,250.474 170.006,250.587 170.649 L 250.791 171.818 252.152 171.897 C 254.025 172.005,254.086 171.588,253.033 165.844 C 252.612 163.548,249.846 159.144,248.358 158.401 C 247.884 158.164,247.300 157.805,247.060 157.603 C 246.672 157.277,245.967 157.022,243.962 156.485 C 243.640 156.399,243.044 155.840,242.635 155.242 C 241.389 153.418,241.403 151.694,242.738 142.597 C 242.937 141.240,243.396 137.734,243.758 134.805 C 244.120 131.877,244.541 129.013,244.694 128.442 C 244.846 127.870,245.031 127.169,245.104 126.883 C 245.183 126.573,245.830 126.073,246.709 125.642 C 249.910 124.073,250.763 123.465,252.766 121.324 C 254.409 119.568,255.114 118.551,256.124 116.477 C 258.063 112.497,257.905 112.347,254.935 115.345 M0.000 192.322 L 0.000 259.740 64.675 259.740 C 103.464 259.740,129.351 259.645,129.351 259.503 C 129.351 259.373,128.865 259.184,128.270 259.084 C 117.028 257.185,106.055 244.352,105.066 231.948 C 104.969 230.734,104.730 229.273,104.536 228.701 C 103.795 226.523,102.027 222.290,100.522 219.091 C 100.119 218.234,99.609 216.993,99.390 216.333 C 99.170 215.673,98.776 214.738,98.515 214.255 C 98.254 213.772,97.768 212.675,97.437 211.818 C 96.840 210.277,95.523 207.304,95.050 206.432 C 94.915 206.184,94.805 205.797,94.805 205.573 C 94.805 205.349,94.503 204.624,94.134 203.963 C 93.765 203.302,93.229 202.111,92.943 201.316 C 92.657 200.521,92.064 199.110,91.627 198.182 C 91.189 197.253,90.740 196.260,90.628 195.974 C 90.190 194.850,88.531 191.014,88.298 190.588 C 88.163 190.340,88.052 190.002,88.052 189.838 C 88.052 189.674,87.592 188.591,87.031 187.432 C 86.469 186.273,85.840 184.857,85.633 184.286 C 85.167 182.999,83.846 179.942,82.716 177.532 C 82.247 176.532,81.685 175.174,81.466 174.514 C 81.247 173.854,80.854 172.919,80.593 172.436 C 80.331 171.954,79.846 170.857,79.514 170.000 C 79.183 169.143,78.589 167.740,78.195 166.883 C 77.800 166.026,77.331 164.916,77.152 164.416 C 76.972 163.916,76.535 162.922,76.180 162.208 C 75.825 161.494,75.302 160.266,75.018 159.481 C 74.579 158.270,73.556 155.956,72.692 154.224 C 72.569 153.976,72.468 153.659,72.468 153.520 C 72.468 153.287,70.940 149.822,70.373 148.770 C 70.239 148.522,70.130 148.184,70.130 148.020 C 70.130 147.856,69.670 146.773,69.109 145.614 C 68.547 144.455,67.918 143.039,67.711 142.468 C 67.224 141.124,65.856 137.956,64.906 135.974 C 64.495 135.117,63.938 133.785,63.667 133.014 C 63.175 131.611,62.425 130.805,62.239 131.479 C 57.151 149.888,39.251 159.823,21.688 153.986 C 10.283 150.196,1.499 139.160,0.620 127.517 C 0.523 126.231,0.344 125.117,0.222 125.042 C 0.099 124.966,0.000 155.116,0.000 192.322 M399.622 125.260 C 399.566 125.438,399.443 126.568,399.349 127.770 C 397.841 147.036,377.195 160.228,358.312 153.989 C 349.076 150.938,341.216 142.937,338.445 133.766 C 337.571 130.877,337.369 130.390,337.044 130.390 C 336.758 130.390,334.807 134.323,334.804 134.906 C 334.803 135.065,334.277 136.282,333.635 137.612 C 332.993 138.941,332.468 140.146,332.468 140.289 C 332.468 140.432,331.942 141.652,331.299 143.001 C 330.656 144.349,330.130 145.577,330.130 145.729 C 330.130 145.880,329.662 146.971,329.091 148.151 C 328.519 149.332,328.052 150.422,328.052 150.574 C 328.052 150.726,327.526 151.968,326.883 153.335 C 326.240 154.701,325.714 155.924,325.714 156.051 C 325.714 156.179,325.551 156.623,325.351 157.038 C 324.279 159.262,323.636 160.727,323.636 160.950 C 323.636 161.088,323.417 161.661,323.149 162.224 C 321.738 165.182,321.299 166.179,321.299 166.417 C 321.299 166.561,320.773 167.752,320.130 169.063 C 319.487 170.374,318.961 171.571,318.961 171.724 C 318.961 171.877,318.494 172.999,317.922 174.218 C 317.351 175.438,316.882 176.565,316.882 176.724 C 316.881 176.883,316.355 178.101,315.713 179.430 C 315.071 180.759,314.545 181.964,314.545 182.107 C 314.545 182.250,314.019 183.471,313.377 184.819 C 312.734 186.167,312.208 187.395,312.208 187.547 C 312.208 187.699,311.740 188.789,311.169 189.969 C 310.597 191.150,310.130 192.240,310.130 192.392 C 310.130 192.544,309.604 193.786,308.961 195.153 C 308.318 196.519,307.792 197.742,307.792 197.870 C 307.792 197.997,307.629 198.441,307.429 198.856 C 306.356 201.080,305.714 202.545,305.714 202.768 C 305.714 202.906,305.495 203.480,305.227 204.042 C 303.819 206.996,303.377 207.996,303.377 208.232 C 303.377 208.375,302.900 209.466,302.318 210.657 C 301.736 211.848,301.079 213.356,300.858 214.009 C 300.637 214.661,300.120 215.907,299.709 216.778 C 299.297 217.649,298.961 218.480,298.961 218.624 C 298.961 218.769,298.435 219.959,297.792 221.271 C 297.149 222.582,296.623 223.776,296.623 223.925 C 296.623 224.074,296.226 225.035,295.739 226.059 C 294.771 228.100,294.419 229.510,294.142 232.468 C 292.997 244.650,282.095 257.115,270.844 259.106 C 270.308 259.201,269.870 259.382,269.870 259.509 C 269.870 259.643,297.164 259.740,334.935 259.740 L 400.000 259.740 400.000 192.338 C 400.000 155.266,399.938 124.935,399.862 124.935 C 399.786 124.935,399.678 125.081,399.622 125.260 M120.116 126.155 C 119.584 126.687,119.760 129.725,120.396 131.000 C 120.607 131.423,120.779 131.910,120.779 132.084 C 120.779 134.382,125.972 136.221,129.671 135.233 C 133.729 134.150,141.558 128.191,141.558 126.187 C 141.558 125.481,120.821 125.450,120.116 126.155 M191.364 126.942 C 190.597 127.023,190.390 127.155,190.390 127.563 C 190.390 127.879,190.503 128.012,190.679 127.904 C 190.838 127.806,191.529 127.695,192.215 127.658 C 193.682 127.579,194.261 127.321,193.729 126.984 C 193.374 126.760,193.148 126.756,191.364 126.942 M132.208 200.683 C 124.386 201.685,116.754 206.602,112.352 213.473 C 100.985 231.217,112.411 254.797,133.401 256.909 C 147.568 258.335,159.686 249.731,163.803 235.325 C 164.528 232.788,164.469 224.580,163.706 221.818 C 160.825 211.388,153.438 204.113,142.727 201.156 C 141.184 200.731,134.265 200.419,132.208 200.683 M258.701 200.758 C 249.125 202.090,240.481 209.019,236.745 218.357 C 234.396 224.227,234.207 232.871,236.310 238.182 C 237.253 240.564,237.644 241.382,238.672 243.117 C 240.855 246.800,244.221 250.399,247.348 252.392 C 248.994 253.440,252.797 255.312,253.296 255.319 C 253.538 255.322,253.802 255.431,253.882 255.562 C 253.963 255.692,254.525 255.881,255.131 255.982 C 255.738 256.082,256.424 256.264,256.656 256.386 C 260.067 258.174,271.486 256.635,276.440 253.720 C 277.125 253.317,277.745 252.987,277.819 252.987 C 277.893 252.987,278.852 252.302,279.950 251.465 C 301.274 235.217,290.741 201.337,264.156 200.662 C 261.942 200.605,259.487 200.649,258.701 200.758 M167.542 230.892 C 167.394 231.168,167.273 231.883,167.273 232.480 C 167.273 233.763,166.468 237.207,165.697 239.221 C 165.397 240.006,165.084 240.872,165.002 241.144 C 162.895 248.151,152.375 257.278,144.445 258.979 C 143.715 259.136,143.117 259.371,143.117 259.502 C 143.117 259.646,165.524 259.740,199.610 259.740 C 233.849 259.740,256.104 259.646,256.104 259.501 C 256.104 259.370,255.724 259.182,255.260 259.084 C 243.685 256.647,233.089 244.703,232.044 232.913 C 231.952 231.882,231.762 230.893,231.621 230.714 C 231.123 230.083,167.881 230.258,167.542 230.892 " stroke="none" fill="#141414" fill-rule="evenodd"></path></g></svg>