<svg id="svg" version="1.1" xmlns="http://www.w3.org/2000/svg" xmlns:xlink="http://www.w3.org/1999/xlink" width="400" height="400" viewBox="0, 0, 400,400"><g id="svgg"><path id="path0" d="M164.973 139.144 C 158.846 140.237,153.875 145.591,152.551 152.525 C 152.247 154.116,151.170 157.028,149.962 159.525 C 148.824 161.876,146.455 166.770,144.699 170.400 C 138.833 182.519,134.369 191.774,133.078 194.490 C 131.520 197.769,131.285 197.799,129.922 194.896 C 122.632 179.374,99.975 184.370,100.007 201.491 C 100.040 218.565,123.204 223.189,130.113 207.500 C 131.063 205.343,131.453 205.162,132.009 206.624 C 132.223 207.187,132.849 208.632,133.399 209.835 C 133.950 211.039,134.400 212.104,134.400 212.202 C 134.400 212.300,134.940 213.559,135.600 215.000 C 136.260 216.441,136.800 217.700,136.800 217.798 C 136.800 217.896,137.236 218.930,137.769 220.095 C 138.302 221.260,139.126 223.201,139.601 224.407 C 140.075 225.613,140.989 227.738,141.632 229.128 C 142.274 230.518,142.800 231.745,142.800 231.854 C 142.800 231.962,143.250 233.034,143.799 234.235 C 144.348 235.436,145.267 237.540,145.840 238.910 C 146.413 240.279,147.313 242.350,147.841 243.512 C 148.368 244.673,148.800 245.704,148.800 245.802 C 148.800 245.900,149.308 247.109,149.930 248.490 C 151.660 252.336,151.942 253.167,152.608 256.386 C 156.171 273.617,179.309 274.586,183.574 257.682 L 184.251 255.000 199.825 254.903 C 216.727 254.799,216.321 254.747,216.664 257.032 C 218.643 270.201,236.317 274.311,244.817 263.579 C 246.223 261.803,248.000 257.038,248.000 255.042 C 248.000 254.337,248.151 253.589,248.336 253.380 C 248.521 253.171,248.913 252.370,249.207 251.600 C 249.501 250.830,250.146 249.297,250.640 248.193 C 251.134 247.089,251.926 245.202,252.400 244.000 C 252.874 242.798,253.698 240.860,254.231 239.695 C 254.764 238.530,255.200 237.496,255.200 237.398 C 255.200 237.300,255.740 236.041,256.400 234.600 C 257.060 233.159,257.600 231.899,257.600 231.800 C 257.600 231.701,258.140 230.441,258.800 229.000 C 259.460 227.559,260.000 226.293,260.000 226.186 C 260.000 225.998,260.487 224.868,262.405 220.600 C 262.899 219.500,264.370 216.080,265.672 213.000 C 269.032 205.058,268.966 205.200,269.285 205.200 C 269.445 205.200,270.119 206.326,270.783 207.703 C 278.219 223.122,300.169 218.746,300.736 201.732 C 301.315 184.329,278.130 179.288,270.714 195.204 C 269.998 196.742,269.314 198.000,269.195 198.000 C 269.076 198.000,267.337 194.715,265.331 190.700 C 248.289 156.590,248.000 155.982,248.000 154.211 C 248.000 140.775,230.679 133.867,221.073 143.473 C 219.188 145.358,216.805 149.581,216.795 151.057 C 216.792 151.466,216.681 152.205,216.548 152.700 L 216.307 153.600 200.153 153.600 C 185.629 153.600,184.000 153.536,184.000 152.962 C 184.000 144.777,174.022 137.531,164.973 139.144 M174.097 141.594 C 187.845 148.056,183.361 168.800,168.217 168.800 C 153.322 168.800,148.571 148.165,161.984 141.732 C 165.278 140.153,170.895 140.089,174.097 141.594 M238.192 141.638 C 251.716 147.995,247.113 168.800,232.183 168.800 C 215.752 168.800,212.705 144.942,228.600 140.746 C 230.764 140.174,236.143 140.675,238.192 141.638 M215.914 155.538 C 216.197 155.718,216.534 156.570,216.664 157.432 C 218.867 172.091,240.075 175.001,246.305 161.500 C 246.889 160.235,247.477 159.200,247.611 159.200 C 247.973 159.200,268.000 199.458,268.000 200.187 C 268.000 200.741,266.168 200.797,251.100 200.704 L 234.200 200.600 234.400 198.000 C 234.771 193.174,234.585 186.242,234.040 184.600 C 231.603 177.261,226.116 172.029,220.831 172.006 C 220.079 172.003,219.138 171.706,218.742 171.347 C 216.316 169.152,204.652 171.095,197.173 174.940 C 188.207 179.551,184.666 182.939,176.831 194.400 C 172.135 201.271,172.888 200.800,166.590 200.800 C 160.568 200.800,160.343 200.710,162.024 198.975 C 164.812 196.099,162.119 193.715,159.089 196.376 C 158.324 197.047,157.462 198.182,157.172 198.898 C 156.882 199.614,156.455 200.332,156.223 200.494 C 155.625 200.909,132.493 200.873,132.235 200.457 C 132.118 200.268,132.900 198.333,133.972 196.157 C 135.045 193.980,137.178 189.590,138.713 186.400 C 140.248 183.210,143.025 177.450,144.883 173.600 C 146.742 169.750,149.147 164.755,150.229 162.500 C 152.530 157.704,152.444 157.751,153.620 160.649 C 159.335 174.729,179.845 173.053,183.576 158.200 C 183.852 157.100,184.145 155.975,184.227 155.700 C 184.399 155.120,215.009 154.964,215.914 155.538 M219.700 174.089 C 222.269 174.714,222.094 175.200,219.300 175.201 C 211.012 175.203,201.066 179.125,196.085 184.358 C 191.443 189.233,188.728 200.697,192.250 200.546 C 193.228 200.505,193.463 200.636,193.329 201.151 C 192.992 202.438,195.361 204.130,197.455 204.099 C 199.237 204.072,199.460 203.936,201.767 201.477 C 203.110 200.046,205.096 198.434,206.200 197.879 C 209.490 196.226,211.043 194.078,211.450 190.614 C 211.743 188.124,212.123 187.830,212.744 189.612 C 213.087 190.596,213.339 190.784,214.083 190.615 C 218.297 189.655,219.024 189.590,220.972 189.994 C 222.098 190.228,223.601 190.772,224.310 191.204 C 225.810 192.116,226.064 193.037,224.700 192.616 C 219.673 191.064,213.702 191.823,212.594 194.154 C 211.750 195.927,210.459 197.311,208.500 198.542 C 205.904 200.173,206.346 204.053,210.079 212.400 C 210.522 213.390,211.147 214.830,211.467 215.600 C 212.159 217.263,213.150 219.416,214.565 222.333 C 215.134 223.506,215.600 224.631,215.600 224.833 C 215.600 225.044,211.950 225.200,206.990 225.200 L 198.380 225.200 197.990 224.100 C 197.338 222.260,196.999 221.871,195.653 221.418 C 193.838 220.807,193.612 220.252,193.612 216.400 C 193.612 212.393,193.494 212.616,196.800 210.388 C 201.040 207.531,204.795 203.359,204.799 201.500 C 204.801 200.423,204.311 200.696,203.000 202.502 C 200.656 205.731,196.905 206.685,193.789 204.846 C 191.858 203.707,191.951 203.668,189.957 206.468 C 188.991 207.826,187.705 209.473,187.100 210.128 C 185.464 211.899,186.123 215.535,189.444 223.060 C 190.394 225.214,190.429 225.200,184.245 225.200 L 178.489 225.200 178.221 223.773 C 178.023 222.716,177.596 222.135,176.577 221.533 C 175.081 220.651,174.918 219.971,175.640 217.628 C 176.825 213.785,177.612 212.810,181.795 210.004 C 189.302 204.967,190.966 203.051,189.720 200.879 C 189.115 199.826,189.094 199.366,189.533 196.747 C 189.805 195.126,190.171 192.720,190.348 191.400 C 190.746 188.417,191.139 187.465,192.957 185.083 C 194.124 183.554,194.400 182.847,194.400 181.378 C 194.400 178.377,197.560 176.448,199.973 177.975 C 200.363 178.221,201.266 177.975,202.791 177.204 C 204.622 176.280,210.079 174.493,214.200 173.468 C 215.146 173.232,217.077 173.450,219.700 174.089 M196.506 179.126 C 195.884 179.521,195.398 181.828,195.875 182.123 C 196.570 182.552,199.472 179.669,198.800 179.216 C 198.081 178.732,197.181 178.697,196.506 179.126 M210.146 180.029 C 211.611 181.181,211.657 184.225,210.234 185.878 C 209.117 187.176,208.454 186.877,209.135 185.383 C 210.903 181.503,207.886 179.674,204.913 182.823 C 203.171 184.669,202.455 183.909,203.883 181.730 C 205.449 179.340,208.289 178.569,210.146 180.029 M188.000 182.560 C 188.000 182.648,187.346 183.683,186.546 184.860 C 185.746 186.037,183.937 189.430,182.527 192.400 C 177.636 202.698,176.690 204.331,173.720 207.603 C 171.706 209.822,170.784 211.170,170.651 212.088 C 170.547 212.809,170.268 214.591,170.031 216.046 C 169.794 217.501,169.600 220.132,169.600 221.891 L 169.600 225.090 164.790 225.288 C 159.693 225.498,158.930 225.721,160.177 226.633 C 161.192 227.375,231.699 227.489,234.623 226.753 C 236.989 226.157,236.865 225.716,234.237 225.387 C 232.132 225.124,232.066 225.077,231.800 223.658 C 231.438 221.727,230.419 220.057,229.413 219.751 C 227.926 219.296,227.712 218.889,228.019 217.103 C 228.305 215.449,229.515 211.839,230.603 209.400 C 230.897 208.740,231.541 207.030,232.034 205.600 C 232.526 204.170,233.050 202.859,233.198 202.687 C 233.632 202.180,267.765 202.295,267.935 202.804 C 268.094 203.282,266.965 206.261,264.933 210.729 C 264.200 212.340,263.600 213.747,263.600 213.855 C 263.600 213.963,263.150 215.034,262.601 216.235 C 262.052 217.436,261.133 219.540,260.560 220.910 C 259.986 222.279,259.198 224.120,258.808 225.000 C 258.419 225.880,256.615 230.110,254.801 234.400 C 252.986 238.690,251.106 243.100,250.622 244.200 C 250.138 245.300,249.498 246.830,249.200 247.600 C 248.263 250.020,247.684 250.703,247.364 249.769 C 242.941 236.866,226.622 234.215,219.235 245.200 C 217.859 247.247,217.396 248.405,216.514 252.000 L 216.170 253.400 200.191 253.400 C 184.521 253.400,184.208 253.384,184.082 252.600 C 181.452 236.340,160.840 233.065,153.810 247.791 C 152.542 250.446,152.447 250.545,152.080 249.600 C 150.793 246.285,146.961 237.464,145.956 235.505 C 145.760 235.123,145.600 234.646,145.600 234.445 C 145.600 234.244,144.880 232.535,144.000 230.648 C 143.120 228.761,142.400 227.129,142.400 227.021 C 142.400 226.912,141.971 225.873,141.446 224.712 C 140.922 223.550,139.551 220.350,138.400 217.600 C 137.249 214.850,135.878 211.650,135.354 210.488 C 134.829 209.327,134.400 208.296,134.400 208.198 C 134.400 208.100,133.860 206.841,133.200 205.400 C 132.540 203.959,132.000 202.694,132.000 202.590 C 132.000 202.485,137.580 202.400,144.400 202.400 L 156.800 202.400 156.800 204.141 C 156.800 209.237,163.369 212.344,168.563 209.705 C 170.846 208.545,176.800 201.994,176.800 200.642 C 176.800 200.023,181.741 190.206,183.149 188.029 C 185.741 184.020,188.000 181.474,188.000 182.560 M121.665 188.513 C 135.194 195.156,130.639 215.335,115.600 215.387 C 99.550 215.443,95.918 193.531,111.030 187.813 C 113.668 186.814,118.909 187.159,121.665 188.513 M291.358 188.558 C 304.851 195.183,300.213 215.399,285.200 215.399 C 269.225 215.399,265.597 193.501,280.630 187.813 C 283.312 186.797,288.508 187.158,291.358 188.558 M13.600 200.800 L 13.600 213.637 16.300 213.518 L 19.000 213.400 19.000 200.800 L 19.000 188.200 16.300 188.082 L 13.600 187.963 13.600 200.800 M21.600 190.392 L 21.600 192.800 30.020 192.800 L 38.440 192.800 38.320 190.500 L 38.200 188.200 29.900 188.092 L 21.600 187.984 21.600 190.392 M52.178 188.514 C 52.069 188.797,52.030 192.172,52.090 196.014 L 52.200 203.000 54.900 203.118 L 57.600 203.237 57.600 195.618 L 57.600 188.000 54.987 188.000 C 53.228 188.000,52.310 188.168,52.178 188.514 M60.000 190.400 L 60.000 192.800 69.200 192.800 L 78.400 192.800 78.400 190.400 L 78.400 188.000 69.200 188.000 L 60.000 188.000 60.000 190.400 M316.800 200.800 L 316.800 213.637 319.500 213.518 L 322.200 213.400 322.200 200.800 L 322.200 188.200 319.500 188.082 L 316.800 187.963 316.800 200.800 M325.593 189.808 L 323.819 191.615 329.707 197.504 L 335.596 203.393 337.493 201.496 L 339.390 199.600 333.600 193.800 C 326.885 187.073,327.819 187.539,325.593 189.808 M340.732 190.297 C 337.197 193.669,337.174 193.764,339.348 195.937 L 341.180 197.769 343.990 194.948 C 347.279 191.646,347.257 191.741,345.231 189.633 C 343.286 187.607,343.601 187.561,340.732 190.297 M349.467 188.267 C 349.320 188.413,349.200 194.173,349.200 201.067 L 349.200 213.600 351.800 213.600 L 354.400 213.600 354.400 200.800 L 354.400 188.000 352.067 188.000 C 350.783 188.000,349.613 188.120,349.467 188.267 M361.389 188.485 C 361.278 188.773,361.236 194.496,361.294 201.204 L 361.400 213.400 364.000 213.400 L 366.600 213.400 366.600 200.800 L 366.600 188.200 364.095 188.081 C 362.311 187.996,361.532 188.112,361.389 188.485 M198.579 192.100 C 198.259 192.915,195.668 194.434,195.384 193.974 C 195.068 193.463,195.909 192.417,196.986 191.981 C 198.194 191.491,198.800 191.537,198.579 192.100 M40.000 200.800 L 40.000 208.837 42.700 208.718 L 45.400 208.600 45.400 200.800 L 45.400 193.000 42.700 192.882 L 40.000 192.763 40.000 200.800 M228.800 197.157 C 228.800 197.884,226.151 200.755,224.723 201.576 C 223.014 202.559,222.920 202.784,222.346 207.254 C 222.110 209.094,221.784 211.590,221.623 212.800 C 221.210 215.898,221.559 216.806,223.626 218.014 C 225.873 219.327,227.246 221.611,227.104 223.800 C 226.969 225.873,226.321 225.730,225.749 223.502 C 224.994 220.561,223.690 219.200,221.627 219.200 C 219.326 219.200,217.296 208.351,218.764 203.907 C 219.182 202.641,219.635 202.231,221.729 201.220 C 223.088 200.563,225.100 199.315,226.200 198.445 C 228.269 196.810,228.800 196.547,228.800 197.157 M60.080 200.700 L 60.200 203.000 68.100 203.108 L 76.000 203.217 76.000 200.808 L 76.000 198.400 67.980 198.400 L 59.960 198.400 60.080 200.700 M78.491 205.900 L 78.600 213.400 81.300 213.518 L 84.000 213.637 84.000 206.018 L 84.000 198.400 81.191 198.400 L 78.382 198.400 78.491 205.900 M170.400 202.753 C 170.400 204.027,165.347 207.200,163.320 207.200 C 161.902 207.200,160.000 205.156,160.000 203.631 L 160.000 202.400 165.200 202.400 C 168.060 202.400,170.400 202.559,170.400 202.753 M21.600 211.200 L 21.600 213.600 30.000 213.600 L 38.400 213.600 38.400 211.200 L 38.400 208.800 30.000 208.800 L 21.600 208.800 21.600 211.200 M52.080 211.100 L 52.200 213.400 64.100 213.506 L 76.000 213.612 76.000 211.206 L 76.000 208.800 63.980 208.800 L 51.960 208.800 52.080 211.100 M369.365 209.347 C 369.247 209.656,369.206 210.694,369.275 211.654 L 369.400 213.400 378.600 213.400 L 387.800 213.400 387.800 211.200 L 387.800 209.000 378.690 208.892 C 371.165 208.804,369.543 208.883,369.365 209.347 M174.400 241.340 C 187.861 248.319,183.400 268.170,168.364 268.194 C 152.103 268.220,148.487 246.259,163.800 240.479 C 166.151 239.592,171.933 240.062,174.400 241.340 M238.156 241.202 C 251.828 248.164,247.381 268.200,232.163 268.200 C 215.519 268.200,212.578 246.357,228.400 240.257 C 230.059 239.618,236.216 240.214,238.156 241.202 " stroke="none" fill="#eeeeee" fill-rule="evenodd"></path><path id="path1" d="M0.000 200.000 L 0.000 400.000 200.000 400.000 L 400.000 400.000 400.000 200.000 L 400.000 0.000 200.000 0.000 L 0.000 0.000 0.000 200.000 M174.533 140.166 C 179.500 142.394,184.000 148.476,184.000 152.962 C 184.000 153.536,185.629 153.600,200.153 153.600 L 216.307 153.600 216.548 152.700 C 216.681 152.205,216.792 151.466,216.795 151.057 C 216.805 149.581,219.188 145.358,221.073 143.473 C 230.679 133.867,248.000 140.775,248.000 154.211 C 248.000 155.982,248.289 156.590,265.331 190.700 C 267.337 194.715,269.076 198.000,269.195 198.000 C 269.314 198.000,269.998 196.742,270.714 195.204 C 278.130 179.288,301.315 184.329,300.736 201.732 C 300.169 218.746,278.219 223.122,270.783 207.703 C 270.119 206.326,269.445 205.200,269.285 205.200 C 268.966 205.200,269.032 205.058,265.672 213.000 C 264.370 216.080,262.899 219.500,262.405 220.600 C 260.487 224.868,260.000 225.998,260.000 226.186 C 260.000 226.293,259.460 227.559,258.800 229.000 C 258.140 230.441,257.600 231.701,257.600 231.800 C 257.600 231.899,257.060 233.159,256.400 234.600 C 255.740 236.041,255.200 237.300,255.200 237.398 C 255.200 237.496,254.764 238.530,254.231 239.695 C 253.698 240.860,252.874 242.798,252.400 244.000 C 251.926 245.202,251.134 247.089,250.640 248.193 C 250.146 249.297,249.501 250.830,249.207 251.600 C 248.913 252.370,248.521 253.171,248.336 253.380 C 248.151 253.589,248.000 254.337,248.000 255.042 C 248.000 257.038,246.223 261.803,244.817 263.579 C 236.317 274.311,218.643 270.201,216.664 257.032 C 216.321 254.747,216.727 254.799,199.825 254.903 L 184.251 255.000 183.574 257.682 C 179.309 274.586,156.171 273.617,152.608 256.386 C 151.942 253.167,151.660 252.336,149.930 248.490 C 149.308 247.109,148.800 245.900,148.800 245.802 C 148.800 245.704,148.368 244.673,147.841 243.512 C 147.313 242.350,146.413 240.279,145.840 238.910 C 145.267 237.540,144.348 235.436,143.799 234.235 C 143.250 233.034,142.800 231.962,142.800 231.854 C 142.800 231.745,142.274 230.518,141.632 229.128 C 140.989 227.738,140.075 225.613,139.601 224.407 C 139.126 223.201,138.302 221.260,137.769 220.095 C 137.236 218.930,136.800 217.896,136.800 217.798 C 136.800 217.700,136.260 216.441,135.600 215.000 C 134.940 213.559,134.400 212.300,134.400 212.202 C 134.400 212.104,133.950 211.039,133.399 209.835 C 132.849 208.632,132.223 207.187,132.009 206.624 C 131.453 205.162,131.063 205.343,130.113 207.500 C 123.204 223.189,100.040 218.565,100.007 201.491 C 99.975 184.370,122.632 179.374,129.922 194.896 C 131.285 197.799,131.520 197.769,133.078 194.490 C 134.369 191.774,138.833 182.519,144.699 170.400 C 146.455 166.770,148.824 161.876,149.962 159.525 C 151.170 157.028,152.247 154.116,152.551 152.525 C 154.585 141.876,165.128 135.948,174.533 140.166 M164.800 140.747 C 156.056 142.659,151.366 153.196,155.668 161.267 C 161.266 171.771,176.245 171.208,181.181 160.309 C 185.994 149.681,176.391 138.214,164.800 140.747 M228.600 140.746 C 215.779 144.131,214.228 161.907,226.270 167.470 C 240.666 174.122,253.339 155.454,241.958 144.361 C 238.687 141.172,232.909 139.608,228.600 140.746 M184.227 155.700 C 184.145 155.975,183.852 157.100,183.576 158.200 C 179.845 173.053,159.335 174.729,153.620 160.649 C 152.444 157.751,152.530 157.704,150.229 162.500 C 149.147 164.755,146.742 169.750,144.883 173.600 C 143.025 177.450,140.248 183.210,138.713 186.400 C 137.178 189.590,135.045 193.980,133.972 196.157 C 132.900 198.333,132.118 200.268,132.235 200.457 C 132.493 200.873,155.625 200.909,156.223 200.494 C 156.455 200.332,156.882 199.614,157.172 198.898 C 157.462 198.182,158.324 197.047,159.089 196.376 C 162.119 193.715,164.812 196.099,162.024 198.975 C 160.343 200.710,160.568 200.800,166.590 200.800 C 172.888 200.800,172.135 201.271,176.831 194.400 C 184.666 182.939,188.207 179.551,197.173 174.940 C 204.652 171.095,216.316 169.152,218.742 171.347 C 219.138 171.706,220.079 172.003,220.831 172.006 C 226.116 172.029,231.603 177.261,234.040 184.600 C 234.585 186.242,234.771 193.174,234.400 198.000 L 234.200 200.600 251.100 200.704 C 266.168 200.797,268.000 200.741,268.000 200.187 C 268.000 199.458,247.973 159.200,247.611 159.200 C 247.477 159.200,246.889 160.235,246.305 161.500 C 240.075 175.001,218.867 172.091,216.664 157.432 C 216.534 156.570,216.197 155.718,215.914 155.538 C 215.009 154.964,184.399 155.120,184.227 155.700 M214.200 173.468 C 210.079 174.493,204.622 176.280,202.791 177.204 C 201.266 177.975,200.363 178.221,199.973 177.975 C 197.560 176.448,194.400 178.377,194.400 181.378 C 194.400 182.847,194.124 183.554,192.957 185.083 C 191.139 187.465,190.746 188.417,190.348 191.400 C 190.171 192.720,189.805 195.126,189.533 196.747 C 189.094 199.366,189.115 199.826,189.720 200.879 C 190.966 203.051,189.302 204.967,181.795 210.004 C 177.612 212.810,176.825 213.785,175.640 217.628 C 174.918 219.971,175.081 220.651,176.577 221.533 C 177.596 222.135,178.023 222.716,178.221 223.773 L 178.489 225.200 184.245 225.200 C 190.429 225.200,190.394 225.214,189.444 223.060 C 186.123 215.535,185.464 211.899,187.100 210.128 C 187.705 209.473,188.991 207.826,189.957 206.468 C 191.951 203.668,191.858 203.707,193.789 204.846 C 196.905 206.685,200.656 205.731,203.000 202.502 C 204.311 200.696,204.801 200.423,204.799 201.500 C 204.795 203.359,201.040 207.531,196.800 210.388 C 193.494 212.616,193.612 212.393,193.612 216.400 C 193.612 220.252,193.838 220.807,195.653 221.418 C 196.999 221.871,197.338 222.260,197.990 224.100 L 198.380 225.200 206.990 225.200 C 211.950 225.200,215.600 225.044,215.600 224.833 C 215.600 224.631,215.134 223.506,214.565 222.333 C 213.150 219.416,212.159 217.263,211.467 215.600 C 211.147 214.830,210.522 213.390,210.079 212.400 C 206.346 204.053,205.904 200.173,208.500 198.542 C 210.459 197.311,211.750 195.927,212.594 194.154 C 213.702 191.823,219.673 191.064,224.700 192.616 C 226.064 193.037,225.810 192.116,224.310 191.204 C 223.601 190.772,222.098 190.228,220.972 189.994 C 219.024 189.590,218.297 189.655,214.083 190.615 C 213.339 190.784,213.087 190.596,212.744 189.612 C 212.123 187.830,211.743 188.124,211.450 190.614 C 211.043 194.078,209.490 196.226,206.200 197.879 C 205.096 198.434,203.110 200.046,201.767 201.477 C 199.460 203.936,199.237 204.072,197.455 204.099 C 195.361 204.130,192.992 202.438,193.329 201.151 C 193.463 200.636,193.228 200.505,192.250 200.546 C 188.728 200.697,191.443 189.233,196.085 184.358 C 201.066 179.125,211.012 175.203,219.300 175.201 C 220.565 175.200,221.600 175.054,221.600 174.876 C 221.600 174.237,215.654 173.106,214.200 173.468 M198.800 179.216 C 199.298 179.552,199.131 179.852,197.815 180.981 C 196.008 182.534,195.411 182.443,195.766 180.671 C 196.119 178.907,197.416 178.284,198.800 179.216 M205.783 179.945 C 204.449 180.759,203.200 182.422,203.200 183.386 C 203.200 184.294,203.671 184.139,204.913 182.823 C 207.886 179.674,210.903 181.503,209.135 185.383 C 208.454 186.877,209.117 187.176,210.234 185.878 C 213.297 182.319,209.717 177.546,205.783 179.945 M186.058 183.929 C 183.466 187.109,176.800 199.143,176.800 200.642 C 176.800 201.994,170.846 208.545,168.563 209.705 C 163.369 212.344,156.800 209.237,156.800 204.141 L 156.800 202.400 144.400 202.400 C 137.580 202.400,132.000 202.485,132.000 202.590 C 132.000 202.694,132.540 203.959,133.200 205.400 C 133.860 206.841,134.400 208.100,134.400 208.198 C 134.400 208.296,134.829 209.327,135.354 210.488 C 135.878 211.650,137.249 214.850,138.400 217.600 C 139.551 220.350,140.922 223.550,141.446 224.712 C 141.971 225.873,142.400 226.912,142.400 227.021 C 142.400 227.129,143.120 228.761,144.000 230.648 C 144.880 232.535,145.600 234.244,145.600 234.445 C 145.600 234.646,145.760 235.123,145.956 235.505 C 146.961 237.464,150.793 246.285,152.080 249.600 C 152.447 250.545,152.542 250.446,153.810 247.791 C 160.840 233.065,181.452 236.340,184.082 252.600 C 184.208 253.384,184.521 253.400,200.191 253.400 L 216.170 253.400 216.514 252.000 C 217.396 248.405,217.859 247.247,219.235 245.200 C 226.622 234.215,242.941 236.866,247.364 249.769 C 247.684 250.703,248.263 250.020,249.200 247.600 C 249.498 246.830,250.138 245.300,250.622 244.200 C 251.106 243.100,252.986 238.690,254.801 234.400 C 256.615 230.110,258.419 225.880,258.808 225.000 C 259.198 224.120,259.986 222.279,260.560 220.910 C 261.133 219.540,262.052 217.436,262.601 216.235 C 263.150 215.034,263.600 213.963,263.600 213.855 C 263.600 213.747,264.200 212.340,264.933 210.729 C 266.965 206.261,268.094 203.282,267.935 202.804 C 267.765 202.295,233.632 202.180,233.198 202.687 C 233.050 202.859,232.526 204.170,232.034 205.600 C 231.541 207.030,230.897 208.740,230.603 209.400 C 229.515 211.839,228.305 215.449,228.019 217.103 C 227.712 218.889,227.926 219.296,229.413 219.751 C 230.419 220.057,231.438 221.727,231.800 223.658 C 232.066 225.077,232.132 225.124,234.237 225.387 C 236.865 225.716,236.989 226.157,234.623 226.753 C 231.699 227.489,161.192 227.375,160.177 226.633 C 158.930 225.721,159.693 225.498,164.790 225.288 L 169.600 225.090 169.600 221.891 C 169.600 220.132,169.794 217.501,170.031 216.046 C 170.268 214.591,170.547 212.809,170.651 212.088 C 170.784 211.170,171.706 209.822,173.720 207.603 C 176.690 204.331,177.636 202.698,182.527 192.400 C 183.937 189.430,185.746 186.037,186.546 184.860 C 187.346 183.683,188.000 182.648,188.000 182.560 C 188.000 182.002,187.127 182.617,186.058 183.929 M111.030 187.813 C 95.918 193.531,99.550 215.443,115.600 215.387 C 133.998 215.323,134.390 187.800,116.000 187.309 C 113.761 187.249,112.064 187.421,111.030 187.813 M280.630 187.813 C 265.597 193.501,269.225 215.399,285.200 215.399 C 303.641 215.399,304.034 187.802,285.600 187.309 C 283.361 187.249,281.664 187.421,280.630 187.813 M19.000 200.800 L 19.000 213.400 16.300 213.518 L 13.600 213.637 13.600 200.800 L 13.600 187.963 16.300 188.082 L 19.000 188.200 19.000 200.800 M38.320 190.500 L 38.440 192.800 30.020 192.800 L 21.600 192.800 21.600 190.392 L 21.600 187.984 29.900 188.092 L 38.200 188.200 38.320 190.500 M57.600 195.618 L 57.600 203.237 54.900 203.118 L 52.200 203.000 52.090 196.014 C 51.956 187.463,51.761 188.000,54.987 188.000 L 57.600 188.000 57.600 195.618 M78.400 190.400 L 78.400 192.800 69.200 192.800 L 60.000 192.800 60.000 190.400 L 60.000 188.000 69.200 188.000 L 78.400 188.000 78.400 190.400 M322.200 200.800 L 322.200 213.400 319.500 213.518 L 316.800 213.637 316.800 200.800 L 316.800 187.963 319.500 188.082 L 322.200 188.200 322.200 200.800 M333.600 193.800 L 339.390 199.600 337.493 201.496 L 335.596 203.393 329.707 197.504 L 323.819 191.615 325.593 189.808 C 327.819 187.539,326.885 187.073,333.600 193.800 M345.231 189.633 C 347.257 191.741,347.279 191.646,343.990 194.948 L 341.180 197.769 339.348 195.937 C 337.174 193.764,337.197 193.669,340.732 190.297 C 343.601 187.561,343.286 187.607,345.231 189.633 M354.400 200.800 L 354.400 213.600 351.800 213.600 L 349.200 213.600 349.200 201.067 C 349.200 186.937,348.967 188.000,352.067 188.000 L 354.400 188.000 354.400 200.800 M366.600 200.800 L 366.600 213.400 364.000 213.400 L 361.400 213.400 361.294 201.204 C 361.169 186.775,360.922 187.930,364.095 188.081 L 366.600 188.200 366.600 200.800 M196.986 191.981 C 195.909 192.417,195.068 193.463,195.384 193.974 C 195.541 194.227,196.160 194.044,197.010 193.492 C 199.182 192.081,199.166 191.097,196.986 191.981 M45.400 200.800 L 45.400 208.600 42.700 208.718 L 40.000 208.837 40.000 200.800 L 40.000 192.763 42.700 192.882 L 45.400 193.000 45.400 200.800 M226.200 198.445 C 225.100 199.315,223.088 200.563,221.729 201.220 C 219.635 202.231,219.182 202.641,218.764 203.907 C 217.296 208.351,219.326 219.200,221.627 219.200 C 223.690 219.200,224.994 220.561,225.749 223.502 C 226.321 225.730,226.969 225.873,227.104 223.800 C 227.246 221.611,225.873 219.327,223.626 218.014 C 221.559 216.806,221.210 215.898,221.623 212.800 C 221.784 211.590,222.110 209.094,222.346 207.254 C 222.920 202.784,223.014 202.559,224.723 201.576 C 226.764 200.403,229.711 196.702,228.500 196.832 C 228.335 196.850,227.300 197.576,226.200 198.445 M76.000 200.808 L 76.000 203.217 68.100 203.108 L 60.200 203.000 60.080 200.700 L 59.960 198.400 67.980 198.400 L 76.000 198.400 76.000 200.808 M84.000 206.018 L 84.000 213.637 81.300 213.518 L 78.600 213.400 78.491 205.900 L 78.382 198.400 81.191 198.400 L 84.000 198.400 84.000 206.018 M160.000 203.631 C 160.000 207.684,164.784 208.180,168.809 204.544 C 171.090 202.483,170.951 202.400,165.200 202.400 L 160.000 202.400 160.000 203.631 M38.400 211.200 L 38.400 213.600 30.000 213.600 L 21.600 213.600 21.600 211.200 L 21.600 208.800 30.000 208.800 L 38.400 208.800 38.400 211.200 M76.000 211.206 L 76.000 213.612 64.100 213.506 L 52.200 213.400 52.080 211.100 L 51.960 208.800 63.980 208.800 L 76.000 208.800 76.000 211.206 M387.800 211.200 L 387.800 213.400 378.600 213.400 L 369.400 213.400 369.275 211.654 C 369.057 208.619,368.534 208.773,378.690 208.892 L 387.800 209.000 387.800 211.200 M163.800 240.479 C 148.487 246.259,152.103 268.220,168.364 268.194 C 183.400 268.170,187.861 248.319,174.400 241.340 C 171.933 240.062,166.151 239.592,163.800 240.479 M228.400 240.257 C 212.578 246.357,215.519 268.200,232.163 268.200 C 247.381 268.200,251.828 248.164,238.156 241.202 C 236.216 240.214,230.059 239.618,228.400 240.257 " stroke="none" fill="#040404" fill-rule="evenodd"></path></g></svg>