<svg xmlns="http://www.w3.org/2000/svg" viewBox="0 0 410 404"><defs><linearGradient id="a" x1="6.392" x2="142.756" y1="21.547" y2="159.359" gradientUnits="userSpaceOnUse"><stop stop-color="#41d1ff"/><stop offset="1" stop-color="#bd34fe"/></linearGradient><linearGradient id="b" x1="139.957" x2="331.439" y1="-15.396" y2="164.046" gradientUnits="userSpaceOnUse"><stop stop-color="#ffea83"/><stop offset=".083" stop-color="#ffdd35"/><stop offset="1" stop-color="#ffa800"/></linearGradient></defs><path fill="url(#a)" d="M399.641 59.525 215.214 388.836c-5.485 9.724-19.271 9.666-24.682-.105L9.862 59.45c-5.713-10.208 3.807-22.109 15.083-19.483l177.699 41.011a13.8 13.8 0 0 0 6.191-.001l175.702-40.98c11.268-2.631 20.805 9.167 15.1 19.379Z"/><path fill="url(#b)" d="M292.899 1.074 156.12 31.43a7.518 7.518 0 0 0-5.853 6.036l-20.29 130.962a7.518 7.518 0 0 0 9.924 8.209l38.304-10.569c5.228-1.443 10.212 3.055 9.125 8.35l-11.377 55.485c-1.121 5.471 3.979 10.244 9.233 8.637l23.635-7.231c5.258-1.606 10.355 3.175 9.229 8.649l-18.08 88.338c-1.623 7.93 9.437 11.94 13.899 5.091l1.313-2.028 112.686-227.829c2.742-5.543-2.265-11.734-8.32-10.296l-39.353 9.342c-5.289 1.255-10.084-3.519-8.931-8.838l25.758-116.13c1.153-5.204-3.553-9.853-8.728-8.73Z"/></svg>

